<?xml version="1.0" encoding="utf-8"?>
<!-- Generator: Adobe Illustrator 19.0.0, SVG Export Plug-In . SVG Version: 6.00 Build 0)  -->
<svg version="1.1" xmlns="http://www.w3.org/2000/svg" xmlns:xlink="http://www.w3.org/1999/xlink" x="0px" y="0px"
	 viewBox="0 0 500 500" style="enable-background:new 0 0 500 500;" xml:space="preserve">
<style type="text/css">
	.st0{fill:#7CBEED;}
	.st1{fill:#66B0E3;}
	.st2{fill:#59AAE2;}
	.st3{fill:#4CA4E1;}
	.st4{fill:#3F9EE0;}
	.st5{fill:#84C7F6;}
	.st6{fill:#8CCFFF;}
	.st7{clip-path:url(#SVGID_2_);fill:#A6CFED;}
	.st8{clip-path:url(#SVGID_2_);}
	.st9{fill:#FFFFFF;}
	.st10{fill:#EDEDED;}
	.st11{opacity:0;fill:#66B0E3;}
	.st12{opacity:0.1667;fill:#6CB5E8;}
	.st13{opacity:0.3333;fill:#73BAEC;}
	.st14{opacity:0.5;fill:#79C0F1;}
	.st15{opacity:0.6667;fill:#7FC5F6;}
	.st16{opacity:0.8333;fill:#86CAFA;}
	.st17{fill:#9FD7FF;}
	.st18{fill:#B2DFFF;}
	.st19{fill:#C5E7FF;}
	.st20{fill:#D9EFFF;}
	.st21{fill:#ECF7FF;}
	.st22{opacity:0.5;fill:#B2DFFF;}
</style>
<g id="BACKGROUND_1">
	<g>
		<g>
			<rect class="st0" width="500" height="500"/>
			<g>
				<path class="st1" d="M12.2,270.2c26.8,3,54.4-0.6,81.9-5.8c14.2-2.6,29.9-6.2,42.4,3.4c26.7,20.5,71.8,39.7,104.8,24.1
					c34.1-16.1,79.5,10.9,107-22.1c24.6-29.5,59.1,6,88.7-11.2c14.2-8.2,23.7-5.6,37.8,0.8c8.5,3.9,16.8,6.8,25.2,8.5V134V0H250H0
					v134.1v134.1C4,269.1,8,269.8,12.2,270.2z"/>
				<path class="st2" d="M0,0v97.2c6,0.8,12.2,79.6,18.3,79.6c0.8,0,1.7,10.9,2.5,10.9c3.3,0.6,6.6,1.1,10,1.4c22.1,2,45.1,0,67-1
					c1.5-0.1,2.9-0.1,4.4-0.2c9.9-0.3,20.4-0.3,29.4,6.4c22.6,16.7,58.1,31.9,85.8,23.2c29.1-9.1,66.1,9.7,90.7-13.7
					c5.1-4.8,10.4-7.4,16-8.7c18.3-4.3,39.6,7.4,59-1.6c11.8-5.5,20.4-3.7,32.1,0.6c7.2,2.6,14.3,4.6,21.5,5.6
					c8.1-0.1,15.8-70.6,21.2-76.8c9.2-10.6,25.5-18.1,36.4-25.6c1.8-1.3,3.7-14,5.7-14.5V0H250H0z"/>
				<path class="st3" d="M0,0v60.3c12.1,1.6,24.3,41.4,36.5,41.4c1.6,0,3.3,5.4,5.1,5.4c2.6,0.3,5.2,0.6,7.9,0.7
					c17.5,1.1,35.9,0.8,52,3.8c1.1,0.2,2.2,0.4,3.3,0.7c7.2,1.6,14.9,3.3,22,8.3c18.4,12.9,44.4,24.2,66.8,22.3
					c24.2-2,52.8,8.5,74.4-5.3c4.4-2.8,9-4.6,13.6-5.9c14.8-4.1,31.7,1.3,47.9-3.5c9.3-2.7,17.1-1.8,26.4,0.3
					c5.9,1.3,11.8,2.3,17.7,2.8c16.2-0.3,31.6-26.1,42.4-38.7c18.5-21.3,51-21.8,72.7-36.8c3.6-2.5,7.5-10.1,11.4-11.1V0H250H0z"/>
				<path class="st4" d="M500,0H250H0v23.4c18.1,2.4,36.5,3.3,54.8,3.3c16.9,0,38.2-1,52.5,10.1c17.2,13.4,39.2,25.2,62.3,31.7
					c23.1,6.5,47.4,7.7,69.2,0c42-14.8,102.2,9.9,135-27.8c27.7-31.9,76.5-3.5,109.1-26c5.4-3.8,11.2-6.2,17.1-7.6V0z"/>
			</g>
			<path class="st5" d="M500,383.1c-18.8,5.4-37.7,10.9-56.2,16.9c-35.9,11.6-74-8.3-109.8,6c-38.8,15.6-80,6.7-120.2-1
				c-28.7-5.5-58.2,1.3-86.5,6.9c-13.3,2.6-9.9-3-16.1-8.1c-11.3-9.2-20.7-10.2-37-9.8c-24.5,0.5-49.5,0.3-74.2,2v84h500V383.1z"/>
			<path class="st6" d="M500,435.4c-18.8,5.4-37.7,10.9-56.2,16.9c-35.9,11.6-74-8.3-109.8,6c-38.8,15.6-80,6.7-120.2-1
				c-28.7-5.5-58.2,1.3-86.5,6.9c-13.3,2.6-9.9-3-16.1-8.1c-11.3-9.2-20.7-10.2-37-9.8c-24.5,0.5-49.5,0.3-74.2,2V500h500V435.4z"/>
		</g>
		<g>
			<defs>
				<rect id="SVGID_1_" width="500" height="500"/>
			</defs>
			<clipPath id="SVGID_2_">
				<use xlink:href="#SVGID_1_"  style="overflow:visible;"/>
			</clipPath>
			<path class="st7" d="M6.8,221.1c-16.2-23,74.2,39.2,102,52.4c27.8,13.2-26,7.6-26,7.6s55.9,24.8,81.6,31.8
				c25.7,7.1,73.8,14.2,66.7,14.2s-19.8,0-19.8,0l5.2,3c0,0-57-14.9-49.6-10.4c7.5,4.5,7.5,9.3-21.6-4.8
				c-29.1-14.2-48.1-15.3-36.2-5.2s-24.2-11.6-41-21.6c-16.8-10.1-26.1-11.2-8.2,4.5c17.9,15.7,49.6,36.9,29.8,27.2
				c-19.8-9.7-27.6-18.3-28-13.8c-0.4,4.5,13.8,17.5-8.6,5.6S-10,266-1.4,270.5c8.6,4.5,24.6,14.3,17.5,5.1
				c-7.1-9.2,1.9-2.1,14.5,6.8c12.7,8.9,0.7-4.5,1.1-11.9c0.4-7.5,48.5,19.8,22.7-3.4C28.8,244,11.7,228,6.8,221.1z"/>
			<path class="st7" d="M117.2,342.1c62.9,21.1,144.2,28,138.8,29.4c-5.4,1.4-58.2-7.5-49.9-3.1c8.2,4.4,44.5,11.3,37,10.3
				c-7.5-1-119.1-15.7-179.2-41.7c-60.1-26,12.6,5,84.9,20.6c21.3,4.6-46.8-15.1-54.4-21.2C86.7,330.4,117.2,342.1,117.2,342.1z"/>
			<path class="st7" d="M262,317.7c-7.1,3.4,31.7,2.6,47,0c15.3-2.6,71.2-13.8,81.6-16.8c10.4-3-23.5,10.4-16,14.9
				c7.5,4.5,47.3-11.9,63.7-18.3c16.4-6.3,58.2-54,29.1-47.3c-29.1,6.7-79.8,33.6-95.8,38c-16,4.4,15.3,1.1,13,2.9
				c-2.2,1.9-30.2,12.3-45.1,13c-14.9,0.7-12.7-1.1-5.2-3.4c7.5-2.2,7.5-2.2,7.5-2.2s14.9-9.3-7.1-3.4c-22,6-26.8,11.6-20.1,10.1
				c6.7-1.5,19.1,4.2-3.9,7.3C287.6,315.7,262,317.7,262,317.7z"/>
			<path class="st7" d="M392.4,341.5c-12.4,4.1-24.9,7.7-37.6,10.6c-30.6,7-92.2,23-79.3,22.7c16.1-0.3,24.9-1.6,69.7-13
				c44.8-11.4-30.8,10.1-13.5,8.2c17.3-1.9,72.2-12.4,131.5-39.3c59.3-26.9-55.8,18.1-69.6,18.1c-7.4,0,62.4-22.5,86.5-35.6
				C491.5,307,427.7,329.6,392.4,341.5z"/>
			<g class="st8">
				<g>
					<path class="st9" d="M212.9,278.6c3.1-1.4,0.3-6.5-2.5-5.6c0,0,0.9-2.2-0.7-4.1c-1.5-1.9-4.5-1.2-5.5-2c-1.1-0.8-1.4-2.8-3.4-3
						c-2-0.2-5.2,1.8-6.1,0.7c-0.9-1.1-2.4-4-4.3-3.6c-1.8,0.4-3.8,0.3-4.9-0.4c-1-0.7-0.6-5.6-5.5-6.4c-4.9-0.8-6.5,0.5-7.7-1
						c-1.3-1.6,0.9-4.1-1.2-4.6c-2.1-0.5-1.1-3.3-2.8-2.8c-1.7,0.5-0.4-3.7-3.3-4.3c-2.9-0.6-4.7,0.4-4.7,0.4s8.1-10-2.9-14.9
						c-11-4.9-13,4.7-14,5.1c0,0-1.7-4.8-5.7-3c-4,1.8-2.6,5.8-2.6,5.8s-1.2-3.5-4.7-3.5c-3.5,0-2,3-3.4,3.1c-1.3,0-2.1-3.9-4.4-3.6
						c-2.3,0.4-4.1,0.8-5.2-1.4c-1.1-2.3-1.5-5.3-4.5-4.7c-3,0.6-4.7,0.8-7.1-1c-2.4-1.8-2.7-3.7-4.9-3.2c-2.3,0.5-3.3-0.9-3.3-0.9
						s0.9-11.4-8.5-12.7c-9.4-1.3-12.5,3.8-15,1.2c-2.5-2.5-0.5-5.9-6.1-6.5c-5.6-0.6,8.4-11.6-5.2-15.9c0,0,10-10-0.5-17
						c-10.5-7-17.6-1-17.6-1s-3.7-6.4-8-3.6c0,0,0.8-7.1-4.8-11.1c-5.6-4-10.7-1.9-10.7-1.9s3.2-5-4.4-7.7c-7.6-2.7-9.4,2-9.4,2
						s-8.3-8.9-12.1-1.7c-3.8,7.2-7.1-0.4-10.8,1.1c-3.7,1.5-4.2,7.4-4.2,7.4s-0.9-3.4-5-3.3c-4.2,0-5.6,4.1-5.6,4.1
						s-5.3-5.9-10.7-3.7s-5.7,7.3-5.7,7.3s0.3-1-4.1-2.4c-4.4-1.4-3.5,3.7-3.5,3.7s0.2-4.9-7.8-6.6c-8-1.7-8.7,4.4-14,2.8
						c-5.3-1.6-6.3-7.8-12.7-8.7c-6.4-0.9-8.1,2.5-8.1,2.5s-3.4-5.2-7.5-0.9c0,0-2.2-5.9-8.7-3.5c-6.5,2.4-4.9,7.8-4.9,7.8
						s-4-4.5-7.3-0.9c-3.3,3.6-0.7,7.6-0.7,7.6s-3.9-5.1-6.1-2.2c-2.3,2.9-6.9-0.8-7.2,1.3c-0.3,2.1-6,0.1-6.5,3.1
						c-0.5,3,10.3,5,9.6,7.4c-0.7,2.4,5.5,5.2,5.5,5.2s-0.6,4.2,4.7,5.7c5.3,1.6,7.2-1.9,7.2-1.9s-1,7.6,11.1,10
						c12.1,2.4,12-7.1,12-7.1s0.6,8.1,8,8.5c7.4,0.4,9.6-2.5,9.6-2.5s-3,11.8,13.9,18.4s23.4,3.9,23.4,3.9s-0.3,7.1,9.7,10.1
						c10,2.9,15.3,0,15.3,0s3.8,10,12.4,11.4c8.5,1.4,11.9-2.8,11.9-2.8s3.9,8.7,11.9,4.3c0,0-0.3,4.3,8.4,4.7
						c8.7,0.4,3.3,0.6,10.1,3.4s12.6,0.9,12.6,0.9s2.1,7.9,12.5,8.5c10.5,0.6,8.5-7.9,8.5-7.9s3.9,5.3,8.8,1.2c0,0-1.2,7.9,8.2,9.6
						c9.4,1.7,11.6-2.1,11.6-2.1s-1.1,9,9.5,7.9c0,0-2.8,4.7,5.4,6.3c0,0,3.5,5.7,10.2,4c6.7-1.7,5-6.8,5-6.8s1.9,4.4,5.4,1.3
						c0,0-2,7.2,5.8,7.4c7.8,0.2,9.7-3.5,12.3-0.6c2.5,3,9.2,3.2,9.2,3.2s-1.4,3.8,5.8,6c7.2,2.2,12.8-0.8,12.8-0.8s1.4,4.2,6.7,2.4
						c5.3-1.8,6.2-3.2,6.2-3.2s0.9,4.2,7.7,3.9s6.5-2.6,6.5-2.6S210.3,279.7,212.9,278.6z"/>
					<g>
						<path class="st10" d="M-48.2,169.2c0,0,0-0.3,0-0.5L-48.2,169.2z"/>
						<path class="st10" d="M139.9,256.8L139.9,256.8L139.9,256.8z"/>
						<path class="st10" d="M66.3,229.4c0,0,0-0.1,0-0.1L66.3,229.4z"/>
						<path class="st10" d="M-80.1,158.6c-0.8-0.6-1.5-1.2-2-2.1C-82.1,156.5-81.2,157.3-80.1,158.6z"/>
						<path class="st10" d="M-146.2,160.3c0.5-3,6.2-1.1,6.5-3.1c0.3-2.1,5,1.6,7.2-1.3c1-1.3,2.4-1,3.6-0.2c-3.7-1-1.6,2.7-1.6,2.7
							s-4.5-1.4-2.8,3.8c1.7,5.1,5.3,3.3,5.3,3.3c1.6,6.3,8.3,5.4,8.3,5.4c5,5.1,8.2,0.3,8.2,0.3c4.9,0.5,4-4.5,4-4.5
							c3.9,1.7,4.1-0.5,4.1-0.5c-4.6-1.4-4.5-6.2-4.5-6.2c1.6,5.7,8.4,5,8.4,5c-0.1,3.7,3.3,3.7,3.3,3.7s-6.1,2.8,0.8,5
							c6.9,2.2,4.5-7.2,4.5-7.2s2,3.6,4.7,3.3c2.7-0.2,2.6-3.1,2.6-3.1s2,1.4,5.5-1c2.2-1.6,0-4.9-1.8-7c3.4,2.4,8.5,2.1,8.5,2.1
							c-0.3,4.8,3.6,4.9,3.6,4.9c-2.9,2.3,0.9,6.5,0.9,6.5s-6.1,1.9-3.4,8.3c2.7,6.5,7.3,5.5,7.3,5.5s-3.4,2.2,1.9,7.3
							c5.3,5.1,10.6,1.7,10.6,1.7c-1.5,4.6,6.1,8.2,8.5,7.5c2.4-0.7,1.5-2.6,1.2-5.3c-0.3-2.8,3.5-2.8,3.5-2.8c1.4-2.9-3-5-3-5
							c1.3-10.2-10.8-10.3-10.8-10.3c3.6-0.9,3.1-9.7,3.1-9.7c0,0,10.8,9,10.8,9c1.7,7.6,11.6,6.1,11.6,6.1c-5,3.2,0.6,9.4,0.6,9.4
							c-7.2,13.2,8.4,15.4,8.4,15.4c-1.3,8.3,9.4,10.6,9.4,10.6c5.5,5.4,9.8,1.2,9.8,1.2c-2.5-2.3,0.9-4.9,0.9-4.9
							c-4.1-3.4-1.9-9.1-1.9-9.1c0.5,6.2,8.6,8,8.6,8c-2.7,8.5,5.2,6.8,5.2,6.8c4.3,5.9,6.4,1.6,6.4,1.6c8,2.6,8.4-3.2,8.4-3.2
							c5.8,2.4,8-1.9,8-1.9c-2.1,9.8,8.6,6.9,8.6,6.9s-7.5,5.7,5.7,8.2c12,2.4,14-4.2,14-4.2c0,0,4.3,2.8,4.3,2.8
							c4.2-4.5-6.2-7.7-6.2-7.7c9.2,3.1,15.7-6.8,15.7-6.8c-2.6,7.9,2.4,8.7,2.4,8.7c-4.6,6.6,2.3,7.5,2.3,7.5c2.2,7.3,9.2,5,9.2,5
							s3.7,3.2,7,0.3s-0.8-6.3-0.8-6.3c4.3,3.7,11.3,0.6,11.3,0.6c-3.7,3.1-0.1,5.6-0.1,5.6s-4.7,3.9-1.6,5.6
							c3.1,1.7,4.5,0.1,4.5,0.1s2.7,2.9,7.4,1.3c4.6-1.6,1.3-4.7,1.3-4.7c6.3,5.5,12.2,3.3,12.2,3.3s-4.6,1.6-3.9,5.9
							c0.8,4.2,4.5,2.2,4.5,2.2s-5,3-1.6,5.9c3.3,2.8,5.7-1.8,5.7-1.8s-2.5,5.1,5.2,7.2c8,2.2,9.3-3.8,9.3-3.8
							c-1.5-1.8-2.3-2.6-3.8-4.4c4.5,4.9,12.5,1.7,12.5,1.7c-1.2,5.3,4.1,5.6,4.1,5.6c-0.6,4.7,4.6,5,4.6,5s-5,5.3,0.7,5.9
							c5.7,0.6,5.5-2.8,5.5-2.8s4.6,3.2,8.4,2.8c3.8-0.4,4.2-2.3,4.2-2.3s1.1,2.2,3.9,2.9c2.8,0.6,3.9-0.6,3.9-0.6s-1.2,2.3,3.9,3.6
							c5.1,1.3,5.2-3,5.2-3s3.1,3.5,4.6,2.3c0.7-0.6,1-1.6,1.1-2.6c1.2,1.4,1.5,3.6-0.4,4.5c-2.6,1.2-3.5-0.8-3.5-0.8
							s0.2,2.3-6.5,2.6s-7.7-3.9-7.7-3.9s-0.8,1.4-6.2,3.2c-5.3,1.8-6.7-2.4-6.7-2.4s-5.7,3-12.8,0.8c-7.2-2.2-5.8-6-5.8-6
							s-6.6-0.3-9.2-3.2c-2.5-3-4.4,0.7-12.3,0.6c-7.8-0.2-5.8-7.4-5.8-7.4c-3.6,3.1-5.4-1.3-5.4-1.3s1.7,5.1-5,6.8
							c-6.7,1.7-10.2-4-10.2-4c-8.2-1.6-5.4-6.3-5.4-6.3c-10.7,1.1-9.5-7.9-9.5-7.9s-2.2,3.9-11.6,2.1c-9.4-1.7-8.2-9.6-8.2-9.6
							c-4.9,4.1-8.8-1.2-8.8-1.2s2,8.5-8.5,7.9c-10.5-0.6-12.5-8.5-12.5-8.5s-5.7,1.9-12.6-0.9s-1.4-3.1-10.1-3.4
							c-8.7-0.4-8.4-4.7-8.4-4.7c-8,4.3-11.9-4.3-11.9-4.3s-3.4,4.1-11.9,2.8c-8.5-1.4-12.4-11.4-12.4-11.4s-5.3,2.9-15.3,0
							c-10-2.9-9.7-10.1-9.7-10.1s-6.5,2.7-23.4-3.9s-13.9-18.4-13.9-18.4s-2.2,2.8-9.6,2.5c-7.4-0.4-8-8.5-8-8.5s0.1,9.5-12,7.1
							c-12.1-2.4-11.1-10-11.1-10s-1.9,3.4-7.2,1.9c-5.3-1.6-4.7-5.7-4.7-5.7s-6.2-2.8-5.5-5.2
							C-135.8,165.3-146.7,163.4-146.2,160.3z"/>
					</g>
					<path class="st10" d="M20.6,214.6c0,0,5.6-10.3,18.2-5c0,0,2.8-3,6-1.2c0,0-4.1-5.5,2.1-6.2c0,0,1.6-6.7,9.6-1.4
						c0,0-1.7-3.8-9-5.1c0,0-3.5-6.6,2-7.9c0,0-1.8-6.4,3.3-6.9c-2.6-0.9-4-1.3-6.6-2.2c0,0-1.5,5.4-5.6,3c0,0-0.5,6.3-6.8,4.4
						c0,0,0,2.9-4,2.4c0,0,6.3,4.1,3.7,8.2c0,0-1.6,1.9-3.6-1.2c0,0,2.1,2.6-2,4c0,0-1.9,4.8-6.4-1.2c0,0,1.9,2.4-0.7,6.4
						C20.8,204.7,22.4,209.3,20.6,214.6z"/>
					<g>
						<path class="st10" d="M-2.4,199.9c-0.4,0.5-0.6,0.8-0.6,0.8C-2.9,200.4-2.6,200.1-2.4,199.9z"/>
						<path class="st10" d="M8.5,195.5c0,0-0.6-0.1-1.3-0.4C8,195.2,8.5,195.5,8.5,195.5z"/>
						<path class="st10" d="M-26.3,168.1c0,0,10-1.5,8.2-8.6c0,0,3.3-3.7-1.7-7c0,0,0.5-5.9,4.2-7.4c1-0.4,2-0.1,3,0.3
							c0,0-4.3-0.5-3.8,3.9c0,0,4.5,1.7,3.8,4.4c0,0,4.9-0.5,6.5,3c0,0-4.3,3.6,2.5,7.1c0,0-5.6-2.1-6.8,3c-1.3,5.1,5.3,4.5,5.3,4.5
							s-1.5,4,2.9,4.4c4.4,0.4,8.4-1.7,8.4-1.7s0.1,3,3.1,3.6c0,0-4.2,3.4,0.7,6.5c0,0-3.9,1-1.7,4.7c0,0-4.2-2.3-4.8,1.6
							c-0.4,2.7,2,4.1,3.7,4.7c-1.9-0.4-5.6-0.2-9.6,4.8c1.6-2.2,5-8.4-1.6-12.8c0,0,2-8.7-8.3-13.7
							C-12.4,173.3-13.3,166.9-26.3,168.1z"/>
					</g>
					<path class="st10" d="M10.9,175.5c0,0,4.2,2.1,3.9-4.3c0,0,6.5-3.2,3.7-8.3c0,0,6.5,3.3,7.5-1.9c0,0-2.2,4.6,1.4,6.8
						c0,0-4.3-0.1-1.5,4.2c0,0-4.7-3.4-4.4,0.8c-0.6-1.6-0.8-2.3-1.4-3.9c0,0-1.2,2.2-3.3,3.3C16.8,172,16.5,179.6,10.9,175.5z"/>
				</g>
				<path class="st9" d="M-58.5,122c-3.1,0.8,2,1.4,3.4,1.2c1.3-0.2,2.9-1.2,2.9-1.2S-54.4,121-58.5,122z"/>
				<g>
					<path class="st9" d="M-106.9,228.1c0,0-4.1-3-1.1-6c3.1-2.9,6.4,2.7,6.4,2.7s0.4-1.9,3.6-1.5c3.2,0.5,3.7,3,3.7,3
						s0.6-6.5,6.8-6.1c6.1,0.4,6.8,5.3,6.8,5.3s0.1-3.7,5-2.3c0,0,0.8-4.3,5.6-1.8c4.8,2.5,2.3,5.7,2.3,5.7s1.6,0,3,1.5
						c1.4,1.5-0.4,3.8-0.4,3.8s3-4.8,9.9-2s3.8,5.5,3.8,5.5s5.3-2.3,5.6,4.2c0,0,1.2-3.4,6.7-1.8c5.5,1.7,4,5.8,4,5.8
						s1.4-0.7,2.6,1.5c1.2,2.2,0.1,3.7,0.1,3.7s2-1.3,3.2,1.9c0,0,3.2-1.7,5,1.8c0,0,4.8,2,2.3,4c0,0,4.5-0.2,4,2.7
						c-0.5,2.9-5.5,0.2-5.5,0.2s0.2,3.6-3.4,1.9c-3.6-1.6-3.5-4.2-3.5-4.2s-1.1,6.5-8.4,4.5s-6.1-6.5-6.1-6.5s-4.1,8.2-14.3,5
						c-10.3-3.3-9.2-11.4-9.2-11.4s-3,2.6-7.3-0.7s-2.9-6.2-2.9-6.2s-2.2,1.9-7.4-0.2c-5.2-2.1-3.5-5.8-3.5-5.8s-3.9,3.1-7.2-0.2
						c-3.4-3.2-2.5-5.4-2.5-5.4s-1.8,1.7-4.6,0.3C-106.7,230-106.9,228.1-106.9,228.1z"/>
					<path class="st10" d="M-29.2,254.7c-3.6-2.4-3.4,0.7-3.4,0.7c-8.6,2.2-12.8-2.4-12.8-2.4c-4.9,3.5-6.7-1.4-6.7-1.4
						s-1.6,5.7-8.8,3.8c-7.2-1.9-4.9-8.1-4.9-8.1c-9.1-0.9-10.6-7.2-10.6-7.2c-8-0.3-7-4.4-7-4.4c-4.8-0.8-5.3-4.2-5.3-4.2
						c-3.2,1.3-5.6-1.4-5.6-1.4s-0.4,1.7-2.2,1.7c-1.8,0-1.7-2.5-1.7-2.5c-5.2,1.4-6.5-2.1-6.5-2.1c-2.8-0.6-3.8-2.3-4.1-4
						c-1.3,2.5,1.9,4.9,1.9,4.9s0.2,1.9,3,3.3c2.8,1.3,4.6-0.3,4.6-0.3s-0.8,2.2,2.5,5.4c3.4,3.2,7.2,0.2,7.2,0.2s-1.7,3.7,3.5,5.8
						c5.2,2.1,7.4,0.2,7.4,0.2s-1.4,2.9,2.9,6.2c4.3,3.2,7.3,0.7,7.3,0.7s-1,8.2,9.2,11.4c10.3,3.3,14.3-5,14.3-5s-1.2,4.4,6.1,6.5
						c7.3,2,8.4-4.5,8.4-4.5s-0.1,2.6,3.5,4.2c3.6,1.6,3.4-1.9,3.4-1.9s5,2.6,5.5-0.2c0.5-2.9-4-2.7-4-2.7c2.5-2-2.3-4-2.3-4
						c-1.8-3.6-5-1.8-5-1.8C-31.7,251.6-29.2,254.7-29.2,254.7z"/>
					<path class="st10" d="M-58.8,249.9c0,0,2.3-4.2-3.4-6.4c0,0-0.4-3.7-3.3-4.3c0,0,4.8,0.9,6.3-1.7c0,0,3.4,1,4.8-0.8
						c0,0-1.9,3.4,1.1,4.2c0,0,0.9,3.9,4.2,1.6c0,0,2,4.5,5.1,4.3c0,0,2.9,2.9,5.8,2.2c0,0-3.7,1.9-6.1,0c0,0-4.8-0.7-6-3.3
						c0,0-1.6,0.6-1.7,3.2C-52.1,248.9-56.2,247-58.8,249.9z"/>
				</g>
				<g>
					<path class="st9" d="M313.2,341.5c0,0-6.4-0.4-4.9-4.5c1.5-4.1,8.6-1.1,8.6-1.1s-0.8-1.9,2.9-3.1c3.7-1.3,5.9,0.5,5.9,0.5
						s-3.4-5.8,3.4-8.7c6.9-2.9,10.7,0.8,10.7,0.8s-2.2-3.2,3.8-4.6c0,0-1.9-4,4.9-4.5c6.7-0.5,6,3.5,6,3.5s1.7-0.9,4.2-0.4
						c2.5,0.5,2,3.4,2,3.4s0.2-5.7,9.3-7c9.1-1.4,7.5,2.6,7.5,2.6s4.2-4.8,8.6,0.5c0,0-0.8-3.5,6-5.1c6.9-1.6,7.9,2.7,7.9,2.7
						s1.1-1.4,3.7-0.2c2.6,1.2,2.5,3,2.5,3s1.3-2.2,4.6-0.2c0,0,2.3-3.2,6.4-1.2c0,0,6.3-1,4.9,2.1c0,0,4.6-2.6,5.9,0
						c1.3,2.7-5.7,3.2-5.7,3.2s2.5,2.8-2.4,3.5c-4.9,0.7-6.4-1.6-6.4-1.6s3,6.1-6.1,8.4c-9,2.3-10.6-2-10.6-2s0.9,9.1-12,12
						c-13,2.9-17.1-4.5-17.1-4.5s-1.6,3.8-8.2,3.4c-6.6-0.4-7-3.7-7-3.7s-1.1,2.8-8,3.8c-6.9,1-7.4-3-7.4-3s-2.2,4.7-7.8,3.7
						c-5.6-0.9-6.2-3.2-6.2-3.2s-0.8,2.3-4.7,2.7C314.6,343,313.2,341.5,313.2,341.5z"/>
					<path class="st10" d="M412.7,321.7c-5.3,0-3.1,2.5-3.1,2.5c-7.6,6.6-15.1,5-15.1,5c-3,5.6-7.9,2.5-7.9,2.5s1.9,5.7-6.9,7.9
						c-8.9,2.3-10.4-4.1-10.4-4.1c-10.3,4.2-15.9-0.3-15.9-0.3c-8.7,4.1-10.2,0.1-10.2,0.1c-5.6,1.9-8.3-0.7-8.3-0.7
						c-2.6,2.9-6.9,1.8-6.9,1.8s0.7,1.6-1.2,2.6c-1.9,1-3.5-1.2-3.5-1.2c-4.7,3.9-8.3,1.7-8.3,1.7c-3.4,0.9-5.6,0-6.9-1.2
						c0.2,2.8,5.1,3.1,5.1,3.1s1.4,1.5,5.3,1.1c3.9-0.4,4.7-2.7,4.7-2.7s0.5,2.3,6.2,3.2c5.6,0.9,7.8-3.7,7.8-3.7s0.5,4,7.4,3
						c6.9-1,8-3.8,8-3.8s0.4,3.2,7,3.7c6.6,0.4,8.2-3.4,8.2-3.4s4.1,7.4,17.1,4.5c13-2.9,12-12,12-12s1.6,4.4,10.6,2
						c9-2.3,6.1-8.4,6.1-8.4s1.5,2.2,6.4,1.6c4.9-0.7,2.4-3.5,2.4-3.5s7-0.6,5.7-3.2s-5.9,0-5.9,0c1.4-3.1-4.9-2.1-4.9-2.1
						c-4.2-2-6.4,1.2-6.4,1.2C408.2,320.6,412.7,321.7,412.7,321.7z"/>
					<path class="st10" d="M378.3,333.9c0,0-0.3-4.7-7.6-3.5c0,0-2.8-2.8-6.3-1.8c0,0,5.6-1.9,5.6-4.8c0,0,4.2-1,4.6-3.3
						c0,0,0.1,3.9,3.8,2.9c0,0,3.5,2.8,5.5-0.9c0,0,5,2.7,8.1,0.9c0,0,4.9,0.9,7.5-1.3c0,0-2.8,3.6-6.5,3.3c0,0-5.6,2-8.5,0.5
						c0,0-1.4,1.4,0.3,3.6C384.9,329.4,379.3,330.1,378.3,333.9z"/>
				</g>
				<g>
					<path class="st9" d="M651.7,221.1c-2.8,5.6-4.6,9.2-8.7,7.9c-4.2-1.3-4.1,6.8-9.2,6.2c-5.1-0.6-2.9,6.5-9.3,7.2
						c-6.4,0.7-10.3-8.9-12.5-6.4c0,0,1.9,9.8-8.7,13.6c-10.6,3.8-21,4-27.9-1.9c0,0-0.2,5.5-5.1,5c-5-0.5-0.1,7.5-10,10.3
						c-9.9,2.7-18.2-0.5-18.2-0.5s2.2,7.4-7.3,11s-13.3-2.8-19.2-1.2c-5.9,1.6-7.2,6.4-13.8,5.4c-6.6-1-9.6-3.1-9.6-3.1
						s2.2,4.5-1,5.4c-3.2,1-5.2-1-5.2-1s3.5,3-0.6,6.5c-4,3.5-21.4,6.6-20.8-0.1c0,0-1.4,3.4-5.9,3.2c-4.4-0.2-2.4-3.7-2.4-3.7
						s-3.2,4.8-6.3,2.9c0,0,0.2,4.8-3.9,5c0,0,1.5,6.1-11,7.6c-12.4,1.5-14.9-6.9-14.9-6.9s-1.5,3.3-5.2,0.6c0,0-2.2,4.5-7,5.2
						c-4.8,0.6-6-4.8-6-4.8s-0.8,4.1-5,3.8c0,0,1.2,2.8-4.1,4c-5.2,1.2-10-0.9-7.4-5.8c0,0-3.4,4.4-7,3.4c-3.6-0.9-5.6-3.5-5.6-3.5
						s0.5,5.6-7.1,5.2c-7.6-0.4-4.3-4.7-4.3-4.7s-4.4,1.8-5.9-0.2c-1.5-2-4.3,1.3-6.3-0.7c-2-1.9,1.6-4.7,6.8-3.5
						c0,0-2.3-5.4,5.3-4.8c0,0-1-5.3,5.9-5.4c6.9-0.2,5.4,2.5,5.4,2.5s3.3-5,7.6-1.4c0,0-0.8-5.1,6.1-6.8c6.9-1.7,9.9,0.7,9.9,0.7
						s-0.1-4.6,6.6-4c0,0-2-4.9,3-6.1c0,0-2.5-11.4,16.2-10.7c0,0,0.5-5.2,6.2-4.4c0,0-1-6.7,8-7.6c0,0-1.4-9.9,15.5-9.8
						c0,0,6.5-5.8,13.3-0.2c0,0-0.1-6.7,7.1-3.5c0,0-3.5-5.7,2.9-8c6.4-2.3,10.9,1.5,10.9,1.5s-6.2-8,3.1-14.6
						c9.2-6.6,17.6-2.2,17.6-2.2s3.7-5,8.2-0.5c0,0,3.1-4.5,7.6-2c0,0-1.6-8,6.9-7.8c0,0-3.9-8.8,6.8-10.4
						c10.7-1.6,14.9,6.5,14.9,6.5s8.7-9.7,17.3,0.1c0,0,2.9-4.9,8.7-2c0,0,8-16,20.7-4.6c12.7,11.4-2.4,21.8-2.4,21.8s8.3,0,7.5,5.4
						c-0.8,5.4-10.3,6.3-10.3,6.3s5.8,1.8,4.9,5.3c0,0,4.6-3.3,7.2,0.4c0,0,6.8-4.6,12.3,1.7c0,0,1.1-5,6.3-4
						c5.2,1,7.8-4.5,12.3-1.3c4.5,3.2,5.7-3.5,9.1-2.3S653.2,217.9,651.7,221.1z"/>
					<g>
						<path class="st10" d="M597.1,228.7c0.1-0.1,0.3-0.2,0.4-0.2C597.5,228.5,597.3,228.6,597.1,228.7z"/>
						<path class="st10" d="M369.4,291.3c0-0.3,0-0.6,0-0.6S369.4,291,369.4,291.3z"/>
						<path class="st10" d="M613.9,232.6c0.2-0.1,0.3-0.3,0.6-0.4C614.5,232.2,614.3,232.4,613.9,232.6z"/>
						<path class="st10" d="M651.8,220.8c0,0.1-0.1,0.1-0.1,0.2c-2.8,5.6-4.6,9.2-8.7,7.9c-4.2-1.3-4.1,6.8-9.2,6.2
							c-5.1-0.6-2.9,6.5-9.3,7.2c-3.8,0.4-6.8-2.9-9-5c7,0.7,6.1-3.2,6.1-3.2c6,0,7.4-5.3,7.4-5.3c4.8,3.1,10.3-1.6,10.3-1.6
							c2.9,0.8,4.4-2.2,4.4-2.2C647.7,224.9,650.3,222.8,651.8,220.8z"/>
						<path class="st10" d="M361.3,287.6c0,0,0-0.2,0-0.5C361.3,287.4,361.3,287.6,361.3,287.6z"/>
						<path class="st10" d="M356,292.4c0,0-2.3-5.4,5.3-4.8c-4.8,0.4-3.4,2.9-1.9,3.9c1.6,1,2.6-0.7,2.6-0.7s-2.5,4.2,2.7,3.9
							c3.9-0.2,4.6-2.4,4.7-3.5c0.1,1,0.8,2.9,4.6,2.1c5.2-1.1,4.4-4.1,4.4-4.1c2,3.7,6,1.5,6,1.5c0.4,5.1,4.4,4.1,4.4,4.1
							c0.8,1.8,3.7,1.9,4.1-0.5c0.4-2.3-2.6-2.1-2.6-2.1c2.7-3.2-2.5-7.2-2.5-7.2c2.3,1.9,5.9,0,5.9,0c-0.9-3.4,2.4-5,2.4-5
							s-2.6,4,0.2,4.2c2.8,0.2,4.2-1.6,4.2-1.6c1.8,4.8,6.2,2.9,6.2,2.9s-2,4.9,2.6,4.4c4.6-0.5,2-4.6,2-4.6s2.4,2.2,3.8-0.1
							c1.3-2.3-2.1-4.3-2.1-4.3c3.6,1.4,4.8,0,4.8,0c3.8,5.6,8.5,2.6,8.5,2.6s-0.2,4.1,5.4,3c5.6-1.1,2.5-4.7,2.5-4.7
							c6.7,0.3,6.2-3.5,6.2-3.5c6.2,0.3,4.7-4.2,4.7-4.2c1.9-2.4-0.7-3.1-0.7-3.1c2.6-0.2,3.1-1.4,3.1-1.4c-1.1-3.3,2.3-4.3,2.3-4.3
							c-2.5,2,0.9,3.8,0.9,3.8s-2.5,4,1.5,6.1s5.4-0.1,5.4-0.1s-1.1,3.4,3.2,2.8c4.3-0.6,4.7-4.5,4.7-4.5s0,3.6,3.8,3.3
							c3.9-0.3,4.8-3.3,4.8-3.3s2.1,2.8,4.9,1c2.7-1.9,1.7-5.2,1.7-5.2s2.7,3.3,4.5-0.3c1.8-3.6-2.8-4.3-2.8-4.3
							c6.6-5.7-2.2-7.9-2.2-7.9c-1.9,0.5-1.6,3-1.6,3c-1.6-3.6-7.1-3-7.1-3c9.1-2,6.8-7.3,6.8-7.3c3.2,7.1,9,2.9,9,2.9
							s-0.3,4.4,1.7,3.9c2-0.5,0.7-3.4,0.7-3.4s5.2,2.2,8.4-0.8c3.2-2.9-0.3-6.2-0.3-6.2s5.8,2,7.1-0.4c1.3-2.3-0.9-3.7-0.9-3.7
							c2.8,1.1,7.2-0.7,7.2-0.7c-5.7,3.3-1.5,7.3-1.5,7.3c-5.7,3.8-0.3,7.4-0.3,7.4s-4-0.3-2.4,3.4c1.6,3.7,4.8,1.3,4.8,1.3
							c1.8,3,4.9,1.1,4.9,1.1c2.3,6.7,6.8,2.5,6.8,2.5s-0.4,3.5,3.2,2.3c3.6-1.2,2-3.8,2-3.8c5.6-2,3.6-5.2,3.6-5.2
							c3.6-1.7-0.7-4.1-0.7-4.1c8.5-2.5,5.3-8.5,5.3-8.5c-3.8,0.2-3.3-2.6-3.3-2.6c-5.2-0.1-6.1-2.9-6.1-2.9
							c4.6,2.8,7.9-0.3,7.9-0.3c-1.4,3.5,3.6,4.6,3.6,4.6s-0.1,3.6,2.7,5.1c2.8,1.5,6.1-0.7,6.1-0.7s-0.2,4.1,2.9,4.2
							c3.2,0.1,3.2-3.5,3.2-3.5c4.8,1.3,4.6-5.2,4.6-5.2s2.8,5.2,7.2,1.1c4.4-4.1-2.2-6.9-2.2-6.9c4.5-4.8-4.7-5.8-4.7-5.8
							c8.2-5.2-3-6.3-3-6.3c7.7-3.6,10.2,1.9,10.2,1.9c-2.3,4.7,4.9,4.5,4.9,4.5c1.9,5.6,5.8,2.5,5.8,2.5s-4.1,9.1,3.1,7.2
							s2.1-6.4,2.1-6.4c4.9-1,3.9-5.5,3.9-5.5c4,2,9.7-0.4,11.3-1.2c-3.2,1.9,1.6,5.5,1.6,5.5c-5.1,2.8-0.6,6.6-0.6,6.6
							s-3.5,2.3,0.6,3.2c4.1,0.9,3.5-1.8,3.5-1.8c6.9-0.8,4.6-4.7,4.6-4.7c4.1-0.6,1.7-3.4,1.7-3.4c2.4,0.4,4.5-0.8,5.5-1.5
							c-1,0.9-1,2.1-0.7,3.1c-0.5-0.2-1-0.1-1.4,0.3c0,0,1.9,9.8-8.7,13.6c-10.6,3.8-21,4-27.9-1.9c0,0-0.2,5.5-5.1,5
							c-5-0.5-0.1,7.5-10,10.3c-9.9,2.7-18.2-0.5-18.2-0.5s2.2,7.4-7.3,11s-13.3-2.8-19.2-1.2c-5.9,1.6-7.2,6.4-13.8,5.4
							c-6.6-1-9.6-3.1-9.6-3.1s2.2,4.5-1,5.4c-3,0.9-5.2-0.9-5.2-0.9s3.3,3.2-0.6,6.5c-4,3.5-21.4,6.6-20.8-0.1c0,0-1.4,3.4-5.9,3.2
							c-4.4-0.2-2.4-3.7-2.4-3.7s-3.2,4.8-6.3,2.9c0,0,0.2,4.8-3.9,5c0,0,1.5,6.1-11,7.6c-12.4,1.5-14.9-6.9-14.9-6.9
							s-1.5,3.3-5.2,0.6c0,0-2.2,4.5-7,5.2c-4.8,0.6-6-4.8-6-4.8s-0.8,4.1-5,3.8c0,0,1.2,2.8-4.1,4c-5.2,1.2-10-0.9-7.4-5.8
							c0,0-3.4,4.4-7,3.4c-3.6-0.9-5.6-3.5-5.6-3.5s0.5,5.6-7.1,5.2c-7.6-0.4-4.3-4.7-4.3-4.7s-4.4,1.8-5.9-0.2
							c-1.5-2-4.3,1.3-6.3-0.7C347.1,294,350.7,291.3,356,292.4z"/>
					</g>
					<path class="st10" d="M572.8,216.2c0,0,5.6,0.5,4.9-3.6c0,0,0-2.5,3.3-3.2c0,0-3.2-2.1,0.1-3.8c3.3-1.7,4.6,0.8,4.6,0.8
						s-1.2-2.5,1.5-2.9c0,0-4.4-1-4.4-3.6c0,0-3.5,4.6-8.5,2.7c0,0,3,2.9-0.8,5.1c0,0,2.5,0.7,2.4,2.2c-0.1,1.5-2.9,0.6-2.9,0.6
						S577.3,214.5,572.8,216.2z"/>
					<path class="st10" d="M533.2,225.4c0,0,3.7-3.5,6.5-1.9c0,0-2.3-3.2,0.1-5.1c0,0-6.7,3.1-8.7,0.1c-2-3,1.7-4.1,1.7-4.1
						s-5-0.2-5.3-3.9c0,0,0.1,4.4-3.9,4.8c0,0,4.6-0.2,3.4,3.6C527,218.9,534.9,220.3,533.2,225.4z"/>
					<g>
						<path class="st10" d="M464.8,234.5c0,0,0-0.9,0.3-1.8C465.1,233.7,464.8,234.5,464.8,234.5z"/>
						<path class="st10" d="M422.4,260c-12.6-2.2-16.8,7.1-16.8,7.1s-2.5-11.4,16.2-10.7c0,0,0.5-5.2,6.2-4.4
							c1.5,3.3,4.1,1.6,4.1,1.6c-2.4-3.3,2.2-5.2,2.2-5.2c-0.5-1.6,1.7-4,1.7-4s-1.4-9.9,15.5-9.8c0,0,6.5-5.8,13.3-0.2
							c-8-2-14.8,3.8-14.8,3.8c-3.7-0.2-5.6,2.9-5.6,2.9c-5.1,0.5-5.8,3.8-5.8,3.8c-2.8,0.2-2.5,4.1-2.5,4.1
							c-3.9,1.5-1.2,5.3-1.2,5.3c-0.2,1.1-0.3,1.6-0.5,2.7c1.7,2.7,4.6,1.5,4.6,1.5s-1.9,4.1,2.1,4c4-0.1,4.3-3.2,4.3-3.2
							c4.3,0.6,5.3-3.1,5.3-3.1c-0.5,3.1,3.6,3.2,3.6,3.2c3.4-4.1-3.1-6.3-3.1-6.3c5.7,1.4,7.9-1.9,7.9-1.9c-1.8,4.5,2,7.9,2,7.9
							c-4.7-0.5-5.6,3.7-5.6,3.7c-4-0.9-5.9,2.6-5.9,2.6c-3.2-4.5-9.3,1.4-9.3,1.4c-4.8,0.8-3.8,4.5-3.8,4.5
							c-7.8,0.2-5.3,4.8-5.3,4.8c-5.4-4.6-12.6-0.3-12.6-0.3c2.6-2.5,4-3.8,6.6-6.4c5.8-0.6,4-4.2,4-4.2c6.3-2.7,0.7-6.3,0.7-6.3
							C425.8,256.2,422.4,260,422.4,260z"/>
					</g>
				</g>
				<g>
					<path class="st9" d="M178.3,323.5c0,0-0.3-3.6-6.9-2.5c0,0,0.3-3.6-5.2-4c0,0,0.8-3.6-6.3-7.1c-7-3.5-12.5-0.2-12.5-0.2
						s2.3-4.6-4.4-9.7c-6.7-5.2-18.9-6.5-18.9-6.5s2.1-2.8-3.3-4.6c-5.4-1.9-5.8,2.6-5.8,2.6s0.5-3.3-2.7-5c0,0,5.8-5.9-14.4-12
						c-20.3-6.1-19.9,3.3-19.9,3.3s-0.3-2-3.2-2.4c0,0,2-5.8-7.6-9.5s-15.9,0.9-14.1,5c0,0-0.4-6.7-11.9-8.4s-7,8.1-7,8.1
						s-3.3-4.7-6.9-4.1c-3.5,0.7-1.7,4.7-1.7,4.7s-9.1-11.7-21.7-9.3c-12.6,2.4,0.7,15,1.3,16.6c1.1,2.9,4.9,20.9,16,23.2
						c0,0-0.8,3.5,5.8,6.1s6.7-1.4,6.7-1.4s-7.2,7.4,5.1,12.4s18.9,0.1,18.9,0.1s2,5.3,10.1,5c8.1-0.2,9-3.5,9-3.5
						s12.9,11.5,17.9,3.5c0,0,15.5,1.4,16.6,1c2.2-0.7,21,10.6,29.7,4.9C151.3,323,146,318,146,318s8.8,6.3,13.1,3.6
						c0,0-0.3,2.8,4.2,2.9c4.5,0.1,4.7-2.3,4.7-2.3S175.6,327,178.3,323.5z"/>
					<g>
						<path class="st10" d="M33.9,278.8c0.5,0,0.7,0.1,0.7,0.1C34.3,278.9,34.1,278.9,33.9,278.8z"/>
						<path class="st10" d="M178.3,323.5c-2.7,3.5-10.2-1.4-10.2-1.4s-0.2,2.5-4.7,2.3c-4.5-0.1-4.2-2.9-4.2-2.9
							C155,324.2,146,318,146,318s4.8,5.3-5.1,11.7c-8.7,5.7-21,0.7-29.7-4.9c-3.1,8-16.6-1-16.6-1c-5,8-17.9-3.5-17.9-3.5
							s-0.9,3.3-9,3.5c-8.1,0.2-10.1-5-10.1-5s-6.7,4.9-18.9-0.1c-8.4-3.4-7.6-8-6.3-10.6c-0.9,0.5-2.6,0.6-5.4-0.5
							c-6.6-2.5-5.8-6.1-5.8-6.1c-11.1-2.3-22.7-11.5-16-23.2C-6.1,274.4-8.7,264,4,261.7c0,0,0,0,0,0c-3.9,2.9-6.2,7.4,5.6,11.7
							c0,0-3.7,2.8,0.3,6c0,0,5,0.5,5.3-3.6c0,0,8.7,3.5,11.7-0.1c0,0,2,2.7,7.1,3.2c-2.3-0.2-9.2-0.4-6.2,3.9c0,0-7.1-1-4.3,3.8
							c0,0,2.2,2,4.9,1.7c0,0-4,3.7,3.4,6.6c0,0-3.9,3.9,5,6.2c8.9,2.3,1.8-4.8,1.8-4.8s4.9,4.2,10.6,3c0,0-4.5,8.9,6.5,12
							c0,0,1.8,3.2,7,2.2c0,0-2,3,6.1,4.9c0,0,4.2-1.9,2.8-4.3c0,0,3.9,3.8,8.4,1.5c4.5-2.3-5.4-5.5-8.4-4.5c0,0-3.7-3.5-9-4.1
							c0,0,11.9,0.3,10.3-3.5c0,0,4.5-2.8-1.9-4.8c0,0,1.6-2.9-3.3-5.5c0,0,12.2-1.1,4.8-10.1c0,0,9.2,2.2,13.5-2.2
							c0,0-5.3,5.2-1.2,8.4c5.2,1.8,7.7,2.7,12.9,4.5c0,0-13.2-1.8-8.8,6.2c0,0-3.1-2.1-6.5,0.3c0,0-1.8,6.2,8.2,5.3
							c0,0,3.9,7.2,8.5,1.9c0,0,9.7,9,18.9,1.1c0,0-6.7,7.1,3.7,11.3c10.4,4.2,8.9-2.4,8.9-2.4s9.6,3.4,9.6-2.9c0,0,5.6,2.6,9.1-0.6
							c0,0,0.3,3.2,5.1,5.4c4.9,2.2,6-1.9,6-1.9s4.9,4.5,11.2,3.4C178,319.8,178.3,323.5,178.3,323.5z"/>
					</g>
					<path class="st10" d="M126.5,311.5c0,0,3.9-3.2,1.7-5.5c0,0,3.3-1.2,1.9-4c0,0,5.8,2,6.8-0.3c0,0,0,2.1,2.8,3.5
						c0,0-3.7-0.4-3.6,2.5c0,0-3.3-1.6-4.5,0.2C131.4,308,130.2,310.8,126.5,311.5z"/>
					<path class="st10" d="M60.8,301.5c0,0-7.1-4.8-3.9-9.1c0,0-3.9-4.6-0.9-5.6c0,0-3-5.3,2.8-5.3c0,0-4.1,0.8-8.4-2.7
						c0,0,0,3.9-6.3,1.5c0,0,1.4,2.5-1.4,4c0,0,8,2.5,7.9,6.2c0,0,4.7,2,3.8,4.3C54.4,294.7,54.3,298.8,60.8,301.5z"/>
				</g>
				<g>
					<path class="st9" d="M404.7,227.2c0,2.1,2.9,0,2.9,0s1.2,1.7,2.5-0.5c0,0,5.4,3.3,8.7-3.5c0,0,3.3,2.9,5.2,1.1
						c1.8-1.9,5.9,5.6,13.2-2.2c0,0,9.9,4.7,12.5-6.5c0,0,2.7,3.2,6.1-1.4c0,0,1.9,3.9,9.1-1.1s4.1-9.4,4.1-9.4s6.2,4.3,12-0.4
						c5.9-4.7,2.8-10.9,2.8-10.9s6.3,0.6,8.9-5.2c0,0,4.9-0.5,4.2-5.8c-0.6-5.3-6.4-5.1-6.4-5.1s-1.6-3.1-4.8-2.6
						c-3.2,0.4-3.6,3-3.6,3s-2-2.9-7.5-3.1c-5.5-0.2-6,5-6,5s-0.7-2.9-2.7-2.7c-2,0.2-2.7,1.7-2.7,1.7s-1.9-2.6-5.1-2.1
						s-3.7,4.8-3.7,4.8s-0.2-2-1.5-2c-1.3,0-1.7,2.4-1.7,2.4s-2.1-1.5-3.5-0.5c-1.4,1-0.5,2.9-0.5,2.9s-3-4.5-8.5,0.4
						c-5.5,4.9-1.4,8.8-1.4,8.8s-1.9-1.5-3.8,0.7c-1.9,2.1,0.6,3.5,0.6,3.5s-4.4-2-7.8,3.2c-3.4,5.2,1.5,7.2,1.5,7.2s-3.8-1.1-5.4,1
						c-1.6,2,0.1,3.9,0.1,3.9s-2.8-3.3-6.4,1.1s0.5,5.7,0.5,5.7s-4.8-1.7-7.2,1.1c-2.4,2.8-0.9,4.4-0.9,4.4s-2.4-0.3-1.7,1.4
						C406.9,225.5,404.7,225.5,404.7,227.2z"/>
					<g>
						<path class="st10" d="M443.9,193.8c-0.1-0.1-0.2-0.2-0.4-0.3C443.5,193.5,443.7,193.6,443.9,193.8z"/>
						<path class="st10" d="M406.9,225.5c0,0,0-0.2-0.1-0.4C406.7,225.1,406.8,225.3,406.9,225.5z"/>
						<path class="st10" d="M455.6,189.3L455.6,189.3L455.6,189.3z"/>
						<path class="st10" d="M484.2,178.6c0,0,0.3,0.1,0.8,0.3C484.6,178.7,484.2,178.6,484.2,178.6z"/>
						<path class="st10" d="M490.4,176.2c0,0,2.4,0.4,0.7,2.7c-1.7,2.3-2.9-0.2-2.9-0.2c-0.5,0.8-2.1,0.5-3.2,0.3
							c0.9,0.4,2.1,1.1,1.9,2.6c-0.3,2.2-3,1.9-3,1.9s2.5,2,0.1,3.3c-2.4,1.3-4.1-0.8-4.1-0.8s0.8,2.3-0.6,2.4c-1.4,0.1-1.7-3-1.7-3
							c-1.3-2.6,1.1-3.8,1.1-3.8c-2.1-1.1-2.4-3.8-2.4-3.8c-0.6,3.1-3.7,3.8-3.7,3.8c-2.2,2.7-4.7,1.7-4.7,1.7c-1.1,1.6-4,2.3-4,2.3
							c5-0.8,5.9,4.5,5.9,4.5c1.5-3.7,4.5-1.9,4.5-1.9c3.3-2.2,3.3,1.1,3.3,1.1c-0.1,2.9,2.9,3,2.9,3c-1.1,1.9-2.8,1.3-2.8,1.3
							c-2.4,3.3-4.8,1.6-4.8,1.6c0,2.4-2.3,2.5-2.3,2.5s2.5,1.9,1.1,3.7c-1.4,1.7-3.8,0.7-3.8,0.7c-2.9,3.1-3.9,0.1-3.9,0.1
							c-3.7,3.1-3.7-0.3-3.7-0.3s-1.9,2.8-4,1.4c-2.1-1.4,1.1-3.6,1.1-3.6c-4-0.6-0.3-3.2-0.3-3.2c-0.1-2.6,3.6-3.1,4.9-3.2
							c-5.4,0.2-3-3.5-3-3.5c-2.2,0.8-3.6-0.5-3.6-0.5s1.7,1.8,0.1,3.5c-1.8,1.8-2.4,0.3-2.4,0.3s1.2,2.9-1.2,3.4
							c-2.4,0.5-2.6-2.2-2.6-2.2c-2.4,1.3-4.6,0.1-5.5-0.5c2.6,2.1,1.8,5.6,1.8,5.6c4.1-2.4,5.2,0.6,5.2,0.6
							c4.3,2.1,0.8,5.2,0.8,5.2c1.6,2.9-1.4,3.2-1.4,3.2s3.4,1.6,1.5,2.4c-1.9,0.8-3-2.6-3-2.6c-2.6,2.7-4.9-0.6-4.9-0.6
							c1,3.6-1.4,3.4-1.4,3.4s1.9,2.3-0.7,2.9c-2.5,0.6-1.2-2-1.2-2c-3.1,1.2-4.2-1.7-4.2-1.7c1.2,3.7-1.4,4.5-1.4,4.5
							s3.1,2.4,0.1,3.8c-3,1.4-3.6-1.5-3.6-1.5c-1.1,1.8-2,1.2-2,1.2c-1.2-0.7,1-2.9,1-2.9c-3.6,3.1-7.3,0.6-7.3,0.6
							s1.9,4.2-0.6,5.1c-2.5,1-3.2-1-3.2-1c-2.7,2.1-3.5,0-3.5,0c-1.4,4.5-5.8,4.4-5.8,4.4c-1.6,1.9-3.5,0.8-3.5,0.8
							s-2.1,0.1-2.2,1.8c0,2.1,2.9,0,2.9,0s1.2,1.7,2.5-0.5c0,0,5.4,3.3,8.7-3.5c0,0,3.3,2.9,5.2,1.1c1.8-1.9,5.9,5.6,13.2-2.2
							c0,0,9.9,4.7,12.5-6.5c0,0,2.7,3.2,6.1-1.4c0,0,1.9,3.9,9.1-1.1s4.1-9.4,4.1-9.4s6.2,4.3,12-0.4c5.9-4.7,2.8-10.9,2.8-10.9
							s6.3,0.6,8.9-5.2c0,0,4.9-0.5,4.2-5.8C496.2,176,490.4,176.2,490.4,176.2z"/>
						<path class="st10" d="M462.2,193.3c0.1,0,0.3,0,0.4,0C462.6,193.2,462.4,193.2,462.2,193.3z"/>
					</g>
					<path class="st10" d="M437.9,209c0,0-2.7-0.7-4,1.6c0,0-0.3-1.6-2.4-2c0,0,3.4-1.4,1.5-3.7c0,0,1.7-2.8-1.1-3.8
						c0,0,1.6-0.2,1.9-2.4c0,0-0.6,2.5,1.6,2.6c0,0-1.6,1.4,0.7,2.4c2.3,1,2.8-1.6,2.8-1.6s-0.8,2.5,0.7,3.8c0,0-2.9-0.6-3.6,0.7
						C435.3,207.9,437.9,209,437.9,209z"/>
				</g>
				<path class="st9" d="M115.9,185.5c-2.2,1.1,4.7,1.7,6,2.3c1.3,0.7,3.9,3.2,7.8,3.8c0,0,2.5,4.2,8,3.2c0,0,2.3,3.9,5.6,4.9
					c3.4,0.9,7.1-0.6,7.1-0.6s1.1,3.8,7.5,5.9c6.4,2.1,9,1.2,9,1.2s3.7,3.1,7.3,1.9c0,0,2.6,3.6,9.2,5.6c6.6,2,10.5-1.7,13-0.3
					c2.5,1.4,8.5,2.2,6.6-0.2c-1.9-2.4-5.2-2.5-5.2-2.5s4-2-0.6-6.8c-4.6-4.8-10.1-1.8-10.1-1.8s1.7-2-1.6-3.2c0,0,1.2-2-1.9-3.8
					c-3.1-1.7-4.6,0.5-4.6,0.5s1.4-2.7-0.9-4.5c-2.4-1.8-5.3,0.1-5.3,0.1s-0.2-7.6-15.3-11.2c-15.2-3.6-13.4,7.5-13.4,7.5
					s-1.9-2.1-5.7-2.1c-3.9,0-2.6,4.1-2.6,4.1s-3.1-3.5-6-3.9c-2.9-0.4-3.9,1.4-3.9,1.4s-1-1.9-3.4-1.8
					C120.1,185.2,118.7,185.3,115.9,185.5z"/>
				<path class="st9" d="M317.9,243.3c-3.5,1.8,7.3-1.6,7.3-1.6s3.9,2.2,6.8,1.4c2.8-0.8,6.6-3.8,6.6-3.8s5.2,2,15.6-2.6
					c10.5-4.5,9.7-8.1,9.7-8.1s6,2.6,11.5-1c5.4-3.5,5.3-7.8,5.3-7.8s6.3-1.3,5.1-3.3c-1.2-2-7-0.3-7-0.3s-0.1-3.4-4.1-3
					c-4,0.4-5.1,5.3-5.1,5.3s-2.4-9.1-14.9-6.4c-12.5,2.7-11.9,15-11.9,15s-3.7-2.7-8.3,1c-4.6,3.7-2.6,6.8-2.6,6.8
					s-4.5-0.4-6.8,1.8C322.9,238.9,322.6,240.9,317.9,243.3z"/>
				<path class="st9" d="M-13.7,143.2c-2.8,0-3.5,1.3-1.7,1.4c1.9,0.2,6.9-0.7,6.9-0.7s1.2,4.5,8.2,2.9c0,0,2.9,3.7,8.7,3.4
					c5.8-0.3,7.3-1.9,7.3-1.9s3.6,3.7,7.9,0.5c0,0,1.2,3.6,5.4,4.2c4.2,0.6,5.7-2.4,5.7-2.4s2.7,3.5,5.9,3.3
					c3.1-0.2,2.3-3.4,2.3-3.4s2.5-1.7,0.7-4c-1.8-2.3-4.6,0.7-4.6,0.7s-2-2.5-4.8-0.7c0,0,5.3-3.9,1.7-7.8c-3.6-3.9-8.6,3.7-8.6,3.7
					s-1.8-2-3.5-1.4c-1.6,0.6-2.1,3-2.1,3s-0.1-2.8-4.8-3.3c-4.7-0.5-5,2.5-5,2.5s-2-3.4-8.2-2c-6.2,1.4-6.6,1.3-9,0.3
					c-2.4-1-5.2,0.9-5.2,0.9s-1.1-1.5-2.2-1.4C-13.6,141.4-13.7,143.2-13.7,143.2z"/>
				<path class="st9" d="M89.3,175.3c-3.9,1.5,1.4,3.9,5.6,4.6c4.2,0.7,10.4,2.5,10.4,2.5S98.9,171.5,89.3,175.3z"/>
				<path class="st9" d="M207.6,218.4c6-1,7.9,4.1,11.9,5.2c4,1.1,7,6,7,6s-12-0.2-15.4-5.7C207.6,218.4,207.6,218.4,207.6,218.4z"
					/>
				<path class="st9" d="M387.3,197.4c0,0-2.7-2.8,2.6-8.7c5.3-5.9,3.7-8.3,9.7-9.4c5.9-1.1,8-0.2,4.9,2.8c-3.1,3-7.9,8.3-7.9,8.3
					S395.9,195.1,387.3,197.4z"/>
				<path class="st9" d="M479.1,165.3c0,0,3.8-8.8,10.8-11.1s1.9-7,10.9-11.7c9-4.7,7.4,4.1,7.4,4.1s-6.9,9.1-13.8,12
					C487.5,161.4,479.1,165.3,479.1,165.3z"/>
				<path class="st9" d="M369.4,267c0,0,2.1-2.5,6.3-4.2c0,0,6.8,0.8,1.3,3.8C371.4,269.7,369.4,267,369.4,267z"/>
				<path class="st9" d="M380.1,235.9c0,0,2-1,5.7-3.1c3.7-2.1,6-2.8,6-2.8s6-2.5,7.4-0.7c1.4,1.7-3.7,4.3-9.3,5.7
					c-5.5,1.4-10,7.6-12.8,6.2C374.2,239.9,380.1,235.9,380.1,235.9z"/>
				<path class="st9" d="M307.7,250c-2.9,1.9,2.2,1.4,2.2,1.4c1.8-1.3,2.8-1.9,4.6-3.2C314.6,248.2,311.5,247.5,307.7,250z"/>
				<path class="st9" d="M223.3,282.6c-3.8,1.7-2.6,0.8,4.4,4.9c7,4.1,9.8,1.5,9.8,1.5s-1.6-2.8-6.2-4.7
					C226.7,282.4,223.3,282.6,223.3,282.6z"/>
				<path class="st9" d="M242.1,292.7c-0.5,0.9,5.7,1.5,7.6,3.2c1.8,1.7,7.5,5.1,8.7,4.4c1.2-0.8-2.9-3.1-4.7-4.6
					C251.9,294.2,244.5,289,242.1,292.7z"/>
				<path class="st9" d="M181.2,285.7c-1.1,0.7,0.8,2.8,3.7,3.3c2.9,0.5,4.9,0.7,5.6,2.2c0.6,1.5,5.8,1.1,7.8,1.9
					c2,0.8,6,2.5,7.3,1.9c1.3-0.6-1.1-1.4-4.8-3.1c-3.7-1.7-5.3-3.3-6.7-3.2c-1.5,0.1-3.3,0.1-5.8-1.4
					C185.6,285.9,182.5,284.9,181.2,285.7z"/>
				<path class="st9" d="M249.4,303.2c1.2-1.6,4.5,3,7.4,2.9c3-0.1,9.8,0.9,12.4,2.3c2.5,1.5,10,2.5,9.5,3.7
					c-0.5,1.2-6.8-0.1-9.1-1.4c-2.3-1.3-7.2-0.1-12-1.7C252.8,307.5,247.4,305.8,249.4,303.2z"/>
				<path class="st9" d="M286.6,311.9c-0.4-3.6,4.1-1.2,7.3-1.5c3.2-0.2,6.8-2.2,7.7-0.9c0.8,1.2-1.1,3.6-4.2,3.3
					C294.3,312.5,287.1,315.8,286.6,311.9z"/>
				<path class="st9" d="M338.6,297c-3.7,0.5-6.1,2.9-9.5,2.2c-3.4-0.7-14.7,2.3-15.8,2.9c-1,0.7,2.9,0.9,5.5,0.3
					c2.6-0.7,6.1-1.1,8.7-0.9s7.2,0.2,9.9-0.6c2.6-0.8,6.4-2,6.4-3.1C343.8,296.6,338.6,297,338.6,297z"/>
				<path class="st9" d="M289.6,340.4c0,0-1.6-2.7-9-1.6c-7.4,1.1-14.9-1.6-14.9-1.6s-10.5-4.3-9.7-1.9c0.8,2.4,5.3,2.7,8.6,4.3
					c3.3,1.6,7.4,2.7,11.7,3.1C280.5,343.1,286.3,343.8,289.6,340.4z"/>
				<path class="st9" d="M186.8,326.7c4.6,1.1,7,0.6,12.1,3.6c5.1,3,5,1.3,11.8,2.9c6.8,1.6,9.1,1.5,14.4,2.4
					c5.4,0.9,2.4,2.4-0.9,2.1c-3.3-0.3-8.9-2.7-13-2.1c-4.1,0.5-6.5,1.3-9.1-0.1c-2.6-1.4-13.5-1.9-16.4-4.2
					C182.9,329,182.2,325.6,186.8,326.7z"/>
				<path class="st9" d="M-33.8,279.3c3.3-1.1,4.9,5.1,8.3,6.4c3.4,1.3,14.8,5,14.1,6.8c-0.7,1.9-3.6,1.5-7.2-1s-3.7-1.9-10.3-4.5
					S-36.9,280.4-33.8,279.3z"/>
				<path class="st9" d="M6.6,302.8c4.4,1.9,8.7,3,9.1,4.6c0.4,1.6-4.4,0.3-7.3-0.9C5.7,305.4,4.2,301.8,6.6,302.8z"/>
				<path class="st9" d="M-73.8,262c3.2-1.6,11.2,3.4,11.1,5.6c-0.1,2.2-2,1.8-4.1,1.3c-2.1-0.5-0.6-2.2-3.3-2.5
					C-72.7,266.1-77.7,263.9-73.8,262z"/>
				<path class="st9" d="M524.4,289.7c-3.9,1.3-2.2,7.3,4.4,3.2c6.6-4.1,2.6-4.4,2.6-4.4C528.5,289,527.1,289.3,524.4,289.7z"/>
				<path class="st9" d="M514,303.3c-5.7,2.5-5.2,4.9-3,4.7c2.2-0.2,5.4-0.9,6.7-2c1.3-1.1,3.4-1.3,2.7-2.7
					C519.6,302,517.5,301.7,514,303.3z"/>
				<path class="st9" d="M479.2,308.1c-4.1,0.3-6.4,4.3-2.1,4.1c4.3-0.2,10.3-1.2,12.7-3.3c2.4-2.1,4.1-2.4,1.7-3.6
					C489,304.1,479.2,308.1,479.2,308.1z"/>
				<path class="st9" d="M513.5,332.2c-1.7,0.8-0.7,2,4.8,0.7c5.5-1.3,6.7-2.6,6.7-2.6S521.8,328.4,513.5,332.2z"/>
				<path class="st9" d="M254.7,255.8c-1.8,0.6-1.9,1.6-0.7,1.3c1.2-0.3,4.1-2,4.1-2s1.8,2.5,5.8-0.1c0,0,2.6,1.6,6.2,0.2
					c3.6-1.4,4.2-2.7,4.2-2.7s3,1.5,5.1-1.4c0,0,1.5,2,4.3,1.5c2.8-0.5,3.1-2.7,3.1-2.7s2.4,1.6,4.4,0.9c1.9-0.7,0.7-2.6,0.7-2.6
					s1.3-1.6-0.4-2.6c-1.6-1.1-2.7,1.4-2.7,1.4s-1.8-1.2-3.2,0.6c0,0,2.6-3.5-0.5-5.2c-3.1-1.7-4.7,4.1-4.7,4.1s-1.6-0.9-2.5-0.1
					c-0.9,0.7-0.7,2.3-0.7,2.3s-0.6-1.7-3.7-1c-3.1,0.7-2.6,2.6-2.6,2.6s-2-1.7-5.6,0.5c-3.6,2.2-3.9,2.3-5.6,2.2
					c-1.7-0.1-3.1,1.7-3.1,1.7s-1.1-0.7-1.7-0.4C254.3,254.7,254.7,255.8,254.7,255.8z"/>
			</g>
			<g class="st8">
				<g>
					<path class="st9" d="M407.3,351.1c-1.7,4.3,5.8,2.1,5.8,2.1s1.2,4.5,5.4,0.8c0,0,8.3,11.1,20.2-0.5c0,0,4.4,8.6,9.5,6.2
						c5.1-2.5,7.3,16.2,28.2,6c0,0,16,17.5,30.3-3.3c0,0,2.8,8.8,13.3,2.2c0,0,0.4,9.6,19,5.2c18.6-4.3,16.2-15.8,16.2-15.8
						s8.6,14,24.3,9.5c15.8-4.6,15-19.9,15-19.9s12.1,6.6,22.4-2.7c0,0,10.2,3.3,13.6-7.9s-8.3-16-8.3-16s-0.4-7.6-7.3-9.6
						c-6.9-1.9-10,3-10,3s-1.5-7.7-12.5-12.9c-11-5.1-16.5,5.1-16.5,5.1s1.2-6.5-3.2-7.7c-4.3-1.2-7,1.1-7,1.1s-1.6-6.9-8.5-8.5
						c-6.9-1.7-11.6,6.8-11.6,6.8s1.3-4.1-1.4-5.3c-2.7-1.2-5.5,3.4-5.5,3.4s-3-4.7-6.7-3.9c-3.7,0.9-3.5,5.5-3.5,5.5
						s-2.4-11.7-17.6-6.2c-15.2,5.5-10.1,17-10.1,17s-2.6-4.5-8.2-1.7c-5.6,2.8-1.5,7.7-1.5,7.7s-7.3-7.6-18.4,0.5
						C461.6,319,470,327,470,327s-6.9-5.2-11.6-2.3c-4.8,3-2.8,8.2-2.8,8.2s-3.1-9.1-13.9-2.7c-10.8,6.4-3.6,12.2-3.6,12.2
						s-8.3-7.3-15.4-3.4c-7.1,3.9-5.1,8.5-5.1,8.5s-4.6-2.6-4.5,1.5C413.1,349.1,408.7,347.6,407.3,351.1z"/>
					<g>
						<path class="st10" d="M513.1,313.1c-0.2-0.3-0.3-0.6-0.5-0.9C512.6,312.2,512.8,312.6,513.1,313.1z"/>
						<path class="st10" d="M413.1,349.1c0,0,0-0.4,0.1-1C413.1,348.3,413,348.7,413.1,349.1z"/>
						<path class="st10" d="M540.5,313.5C540.5,313.5,540.5,313.5,540.5,313.5C540.5,313.5,540.5,313.5,540.5,313.5z"/>
						<path class="st10" d="M607.5,316.3c0,0,0.6,0.6,1.4,1.2C608.2,316.8,607.5,316.3,607.5,316.3z"/>
						<path class="st10" d="M622.2,316.8c0,0,4.5,2.8-1,6c-5.5,3.1-5.6-2.9-5.6-2.9c-1.7,1.3-4.8-0.8-6.6-2.3
							c1.4,1.5,3.2,4.1,1.5,6.9c-2.6,4.3-7.7,1.2-7.7,1.2s3.3,6.2-2.6,6.8c-5.9,0.7-7.4-5.2-7.4-5.2s-0.3,5.3-3.3,4.4
							c-3-0.9-0.9-7.5-0.9-7.5c-0.5-6.5,5.5-6.7,5.5-6.7c-3.2-4.1-1.6-9.7-1.6-9.7c-3.9,5.8-10.7,4.6-10.7,4.6
							c-6.8,3.7-10.9-0.5-10.9-0.5c-3.6,2.3-10.1,1.3-10.1,1.3c10.7,2.6,8,14.2,8,14.2c6.1-6.4,10.8,0,10.8,0
							c8.5-1.6,5.7,5.1,5.7,5.1c-2.8,5.9,3.1,8.6,3.1,8.6c-3.8,2.9-6.6,0.2-6.6,0.2c-7.6,4.6-10.9-0.8-10.9-0.8
							c-2.1,4.9-6.7,3.1-6.7,3.1s3.3,6.1-0.9,8.4c-4.2,2.4-8.3-1.8-8.3-1.8c-8.5,3.9-7.9-3-7.9-3c-10,3.3-7.2-3.7-7.2-3.7
							s-6.2,4.1-9.2-0.5c-3-4.7,5.3-6.4,5.3-6.4c-7.6-4.6,2.1-6.7,2.1-6.7c2-5.5,9.9-3.4,12.5-2.5c-11.1-4.2-3-9.7-3-9.7
							c-5.2-0.3-6.8-3.6-6.9-4c0.2,0.4,2,5.1-2.8,7.3c-5.1,2.2-5.1-1.5-5.1-1.5s0,6.9-5.3,6c-5.3-0.9-3.3-6.6-3.3-6.6
							c-5.9,0.7-9.5-3.6-10.8-5.6c3.5,6.4-0.9,12.9-0.9,12.9c10.3-1.6,10,5.6,10,5.6c7,7.8-2.7,11.4-2.7,11.4
							c0.9,7.2-5.5,5.5-5.5,5.5s5.5,6,1,6.1c-4.5,0.2-3.8-7.7-3.8-7.7c-7.4,3.5-9.4-5.2-9.4-5.2c-1,8.3-5.6,5.9-5.6,5.9
							s1.9,6.3-3.7,5.4c-5.6-0.8-0.8-5-0.8-5c-7.1,0-7.1-6.9-7.1-6.9c-0.6,8.7-6.4,8.2-6.4,8.2s4.3,7.3-2.9,7.9
							c-7.2,0.6-5.9-5.9-5.9-5.9c-3.5,2.9-5,0.8-5,0.8c-1.8-2.3,4.3-5.1,4.3-5.1c-9.7,3.4-15.3-4.5-15.3-4.5s0.5,10.1-5.2,10.2
							c-5.7,0.1-5.6-4.5-5.6-4.5c-7.1,2.3-7-2.8-7-2.8c-6.4,8.3-15,4.6-15,4.6c-4.7,2.8-7.6-1-7.6-1s-4.4-1.5-5.7,2
							c-1.7,4.3,5.8,2.1,5.8,2.1s1.2,4.5,5.4,0.8c0,0,8.3,11.1,20.2-0.5c0,0,4.4,8.6,9.5,6.2c5.1-2.5,7.3,16.2,28.2,6
							c0,0,16,17.5,30.3-3.3c0,0,2.8,8.8,13.3,2.2c0,0,0.4,9.6,19,5.2s16.2-15.8,16.2-15.8s8.6,14,24.3,9.5
							c15.8-4.6,15-19.9,15-19.9s12.1,6.6,22.4-2.7c0,0,10.2,3.3,13.6-7.9C633.9,321.5,622.2,316.8,622.2,316.8z"/>
						<path class="st10" d="M550.4,327.2c0.3,0.1,0.6,0.2,0.9,0.3C551.3,327.5,551,327.4,550.4,327.2z"/>
					</g>
					<path class="st10" d="M488.7,339.5c0,0-4.8-3.5-9.4,0.1c0,0,0.6-3.5-3.3-6.1c0,0,8-0.1,6.1-6.4c0,0,5.6-4.3,0.9-8.7
						c0,0,3.4,0.9,5.7-3.5c0,0-3.3,4.5,1.1,6.7c0,0-4.3,1.5-0.5,5.5c3.8,4,7-1.1,7-1.1s-3.6,4.5-1.8,8.4c0,0-5.4-3.5-7.8-1.4
						C484.2,335,488.7,339.5,488.7,339.5z"/>
				</g>
				<g>
					<path class="st9" d="M75.9,352.1c0,0,16.7,0.4,15-13.6c-1.6-14.1-21.6-5.8-21.6-5.8s3-6-6.1-11.2c-9-5.2-15.5,0.3-15.5,0.3
						s11.8-18.6-4.6-29.9c-16.5-11.3-28.3,0.5-28.3,0.5s7.3-10.3-7.9-16.2c0,0,6.7-13.2-10.6-16.1c-17.4-2.9-17.4,10.7-17.4,10.7
						s-4.1-3.4-10.8-2c-6.7,1.4-6.6,10.9-6.6,10.9s2-19-21.4-24.9s-20.7,7.6-20.7,7.6s-9.2-16.6-22.9,0.6c0,0,3.6-11.7-13.8-17.8
						c-17.4-6.1-21.7,8.2-21.7,8.2s-2.4-4.7-9.8-0.8c-7.4,3.9-7.6,9.8-7.6,9.8s-2.6-7.5-12.1-1c0,0-4.8-10.8-16.5-4.5
						c0,0-16.3-3.5-13.6,6.8c0,0-11.2-8.9-15.4-0.1s13.8,11,13.8,11s-7.5,9.3,5,11.8c12.5,2.5,17.2-4.9,17.2-4.9s-10,20,12.8,28.4
						c22.7,8.4,28.4-5.9,28.4-5.9s-5.9,30.2,26.6,41.2c32.4,11,46.2-12.9,46.2-12.9s2.4,12.9,19.8,12.6c17.3-0.3,19.8-11,19.8-11
						s1.5,9.5,18.9,14.2c17.4,4.7,20.5-8.5,20.5-8.5s3.4,15.9,18.5,14.1s17.5-9.3,17.5-9.3s1,8,10.9,10.2
						C71.5,356.8,75.9,352.1,75.9,352.1z"/>
					<path class="st10" d="M-174.7,270.9c14,0.4,7.3,8.6,7.3,8.6c17.6,22.5,37.5,17.8,37.5,17.8c5.7,19,19.8,9,19.8,9
						s-7.2,18.6,14.8,27.3c22,8.7,28.7-12.3,28.7-12.3c25,15.4,41.4,1.6,41.4,1.6c20.9,15,26.5,2.1,26.5,2.1
						c13.7,7.5,21.9-0.7,21.9-0.7c5.4,10.1,17,7.4,17,7.4s-2.5,5.3,1.9,8.9c4.4,3.6,9.5-3.1,9.5-3.1c10.3,14.1,20.7,7.8,20.7,7.8
						c8.3,3.9,14.3,1.5,18.5-2.3c-2.1,9.4-14.9,9-14.9,9s-4.5,4.7-14.3,2.5c-9.8-2.2-10.9-10.2-10.9-10.2s-2.5,7.5-17.5,9.3
						s-18.5-14.1-18.5-14.1s-3.1,13.2-20.5,8.5C-23,343.5-24.6,334-24.6,334s-2.4,10.7-19.8,11c-17.3,0.3-19.8-12.6-19.8-12.6
						s-13.8,24-46.2,12.9c-32.4-11-26.6-41.2-26.6-41.2s-5.7,14.4-28.4,5.9s-12.8-28.4-12.8-28.4s-4.7,7.4-17.2,4.9
						c-12.5-2.5-5-11.8-5-11.8s-18-2.2-13.8-11c4.2-8.9,15.4,0.1,15.4,0.1c-2.7-10.3,13.6-6.8,13.6-6.8c11.7-6.4,16.5,4.5,16.5,4.5
						C-162.3,267.3-174.7,270.9-174.7,270.9z"/>
					<path class="st10" d="M-89.6,314.8c0,0,2.6-15.8,21.3-10.7c0,0,8.4-9.1,17.1-5.1c0,0-13.9-7-12.5-16.9c0,0-10.6-3.9-10.7-11.6
						c0,0-1.9,13-11.1,9.2c0,0-10.3,8.9-14.1-3.8c0,0-14.2,8.4-21.7,2c0,0-13.1,2.4-19.2-5.2c0,0,5.9,12.3,15.8,11.8
						c0,0,13.7,7.2,22,2.6c0,0,3,4.8-2.2,12C-104.8,299.1-90.4,301.8-89.6,314.8z"/>
				</g>
				<g>
					<path class="st9" d="M272.8,441.5c-2.1,6.7,9,2.6,9,2.6s2.2,6.6,8.3,0.7c0,0,13.4,15.9,30.3-2.5c0,0,7.4,12.6,14.9,8.5
						s12.3,23.7,42.9,6.4c0,0,25.6,24.9,45.2-7.7c0,0,5,13,20.1,2.1c0,0,1.5,14.3,29,6.2c27.5-8.2,22.9-25.2,22.9-25.2
						s14.1,20.3,37.4,12c23.3-8.3,20.8-31.2,20.8-31.2s18.7,8.9,33.4-6.1c0,0,15.6,4.1,19.7-13.2s-13.9-23.3-13.9-23.3
						s-1.3-11.5-11.8-13.7c-10.6-2.3-14.7,5.3-14.7,5.3s-3-11.5-19.9-18.2c-17-6.7-24.4,9.2-24.4,9.2s1.2-9.9-5.4-11.4
						c-6.6-1.5-10.4,2.3-10.4,2.3s-3.1-10.2-13.6-12.1c-10.5-1.9-16.8,11.2-16.8,11.2s1.5-6.3-2.6-7.9c-4.1-1.5-8,5.6-8,5.6
						s-4.9-6.8-10.4-5.2c-5.5,1.6-4.8,8.6-4.8,8.6s-4.7-17.4-27.1-7.8c-22.4,9.6-13.6,26.5-13.6,26.5s-4.4-6.6-12.6-1.8
						c-8.2,4.7-1.6,11.7-1.6,11.7s-11.6-10.8-27.6,2.3c-15.9,13.2-2.6,24.4-2.6,24.4s-10.8-7.2-17.7-2.4c-6.9,4.9-3.5,12.5-3.5,12.5
						s-5.5-13.5-21.2-2.9c-15.7,10.6-4.3,18.6-4.3,18.6s-13.1-10.2-23.4-3.7c-10.3,6.5-7,13.3-7,13.3s-7.2-3.4-6.7,2.7
						C281.2,438,274.6,436.1,272.8,441.5z"/>
					<g>
						<path class="st10" d="M428.6,375c-0.3-0.4-0.6-0.9-0.9-1.3C427.7,373.7,428,374.2,428.6,375z"/>
						<path class="st10" d="M281.2,438c0,0,0-0.6,0.1-1.5C281.2,436.9,281.2,437.4,281.2,438z"/>
						<path class="st10" d="M469.8,373.2C469.8,373.2,469.7,373.1,469.8,373.2C469.7,373.1,469.8,373.2,469.8,373.2z"/>
						<path class="st10" d="M570.8,371.5c0,0,0.9,0.8,2.2,1.7C571.8,372.1,570.8,371.5,570.8,371.5z"/>
						<path class="st10" d="M592.8,370.9c0,0,7,3.9-1,9.1c-8,5.2-8.7-3.9-8.7-3.9c-2.5,2.1-7.3-0.8-10.1-2.8
							c2.3,2.1,5.1,5.9,2.8,10.2c-3.5,6.7-11.4,2.5-11.4,2.5s5.5,9-3.3,10.5c-8.8,1.5-11.6-7.2-11.6-7.2s0,8-4.6,6.9
							c-4.6-1.2-2-11.2-2-11.2c-1.3-9.7,7.7-10.5,7.7-10.5c-5.2-5.8-3.2-14.5-3.2-14.5c-5.4,9-15.7,7.8-15.7,7.8
							c-10,6.1-16.5,0.2-16.5,0.2c-5.3,3.8-15,2.9-15,2.9c16.3,2.9,13.3,20.6,13.3,20.6c8.6-10.1,16.2-1,16.2-1
							c12.7-3.2,9.1,7.1,9.1,7.1c-3.7,9.1,5.4,12.7,5.4,12.7c-5.5,4.7-9.9,0.9-9.9,0.9c-11,7.7-16.5-0.3-16.5-0.3
							c-2.7,7.6-9.7,5.2-9.7,5.2s5.4,8.8-0.7,12.8c-6.1,4-12.6-2-12.6-2c-12.5,6.7-12.2-3.8-12.2-3.8c-14.8,5.9-11.1-4.9-11.1-4.9
							s-9,6.8-13.9,0c-5-6.7,7.3-10.1,7.3-10.1c-11.8-6.3,2.5-10.3,2.5-10.3c2.5-8.5,14.5-5.9,18.6-4.8c-17.1-5.4-5.4-14.2-5.4-14.2
							c-7.8,0.1-10.5-4.9-10.8-5.4c0.3,0.6,3.4,7.6-3.6,11.2c-7.4,3.8-7.8-1.8-7.8-1.8s0.5,10.3-7.5,9.5s-5.6-9.6-5.6-9.6
							c-8.8,1.6-14.6-4.6-16.7-7.4c5.9,9.3-0.2,19.4-0.2,19.4c15.4-3.4,15.6,7.6,15.6,7.6c11.2,11.2-3.1,17.4-3.1,17.4
							c2,10.8-7.7,8.8-7.7,8.8s8.8,8.5,2,9.1c-6.8,0.6-6.4-11.2-6.4-11.2c-10.9,5.9-14.6-7-14.6-7c-0.7,12.6-7.9,9.4-7.9,9.4
							s3.4,9.3-5.1,8.5c-8.4-0.7-1.6-7.5-1.6-7.5c-10.7,0.6-11.3-9.7-11.3-9.7c-0.2,13.1-8.9,12.8-8.9,12.8s7.1,10.6-3.6,12.1
							c-10.8,1.5-9.4-8.4-9.4-8.4c-5.1,4.6-7.5,1.6-7.5,1.6c-2.9-3.3,6.1-8.1,6.1-8.1c-14.3,6-23.4-5.4-23.4-5.4s1.6,15.2-7,15.8
							c-8.6,0.6-8.8-6.3-8.8-6.3c-10.4,4-10.8-3.6-10.8-3.6c-8.9,13-22.1,8.2-22.1,8.2c-6.8,4.6-11.5-0.8-11.5-0.8s-6.7-1.9-8.4,3.5
							c-2.1,6.7,9,2.6,9,2.6s2.2,6.6,8.3,0.7c0,0,13.4,15.9,30.3-2.5c0,0,7.4,12.6,14.9,8.5c7.5-4.2,12.3,23.7,42.9,6.4
							c0,0,25.6,24.9,45.2-7.7c0,0,5,13,20.1,2.1c0,0,1.5,14.3,29,6.2c27.5-8.2,22.9-25.2,22.9-25.2s14.1,20.3,37.4,12
							c23.3-8.3,20.8-31.2,20.8-31.2s18.7,8.9,33.4-6.1c0,0,15.6,4.1,19.7-13.2C610.9,376.9,592.8,370.9,592.8,370.9z"/>
						<path class="st10" d="M485.9,392.8c0.4,0.1,0.9,0.3,1.3,0.4C487.2,393.2,486.7,393.1,485.9,392.8z"/>
					</g>
					<path class="st10" d="M394.1,416.8c0,0-7.6-4.9-14.2,0.9c0,0,0.6-5.3-5.4-8.8c0,0,12-0.9,8.6-10.2c0,0,8-7,0.6-13.2
						c0,0,5.2,1.1,8.3-5.8c0,0-4.5,7.1,2.2,10c0,0-6.4,2.7-0.3,8.3c6,5.6,10.4-2.3,10.4-2.3s-5,7.1-2,12.8c0,0-8.5-4.8-11.9-1.5
						C387,410.5,394.1,416.8,394.1,416.8z"/>
				</g>
				<g>
					<path class="st9" d="M-319.5,462.8c10.3,11.8,17,19.5,25.9,13.3c8.9-6.1,14.3,13.9,25.8,8.9c11.5-5,11.1,14.1,26.5,11.6
						c15.4-2.5,18.5-29.2,25.3-24.2c0,0,1.9,25.6,28.9,28.3c27.1,2.7,51.6-3.3,64.5-22.1c0,0,3.6,13.6,15,9.5
						c11.4-4.2,4.6,18.8,29.5,19.9c24.9,1.1,42.8-11.7,42.8-11.7s-1.3,19.8,23,23.6c24.3,3.9,30-14.1,44.7-13.1
						c14.7,1,20.2,12.5,35.3,6.8S89,501.2,89,501.2s-3.1,12.3,4.9,13.3c8,1,11.9-4.9,11.9-4.9s-6.9,9.3,4.3,16.3
						c11.2,7,53.6,7.2,49.4-9.7c0,0,4.8,7.9,15.3,5.5c10.4-2.4,4.3-10.4,4.3-10.4s9.6,10.9,16.2,4.6c0,0,1.4,12.2,11.3,11
						c0,0-1.1,16,28.9,14.9c30-1.1,32.8-23.3,32.8-23.3s4.8,7.9,12.5-0.5c0,0,6.9,10.7,18.5,10.6c11.6-0.1,12.6-14.4,12.6-14.4
						s3.4,10.1,13.3,8c0,0-1.8,7.5,11,8.8c12.9,1.3,23.6-5.6,15.9-17.3c0,0,9.6,10,17.9,6.6c8.3-3.5,12.3-10.8,12.3-10.8
						s0.4,14.3,18.5,11.1s8.9-13.3,8.9-13.3s10.9,3.4,14-2.2c3.1-5.6,10.6,2,15-3.5c4.4-5.5-5-11.5-17.4-7c0,0,4.1-14.5-14-10.8
						c0,0,0.9-13.8-15.7-12.2c-16.6,1.6-12.2,8.1-12.2,8.1s-9.5-11.8-18.7-1.2c0,0,0.4-13.4-16.8-15.4s-23.6,5.1-23.6,5.1
						s-1.4-11.9-17.3-7.9c0,0,3.1-13.1-9.3-14.4c0,0,2-30.3-43.3-21.2c0,0-3.1-13.2-16.8-8.7c0,0-0.2-17.4-22.6-16.3
						c0,0-0.5-26-42.1-18.5c0,0-18.4-12-32.5,5.4c0,0-2.9-17.2-18.8-5.7c0,0,6-16.1-10.8-19c-16.8-2.9-26.1,9-26.1,9
						s11.4-23.4-14.6-35.4c-26-12-44.5,3.3-44.5,3.3s-11.8-10.6-20.3,3.1c0,0-10.1-9.6-19.6-0.9c0,0-0.4-21.1-21.3-16
						c0,0,4.8-24.5-22.6-22.3c-27.4,2.2-33,25.1-33,25.1s-27.3-19.3-42.3,10.6c0,0-10-10.5-22.4,0.3c0,0-29.8-35.1-53.3,1.8
						c-23.5,36.9,19.7,52.7,19.7,52.7s-20,5.4-14.6,18.2c5.4,12.9,28.4,9,28.4,9s-12.6,8.1-8.2,16.4c0,0-13-5.3-16.9,5.6
						c0,0-19.2-7.1-28.1,12.4c0,0-5.9-11.6-17.5-5.6c-11.6,5.9-21.5-5.9-29.8,5.2s-15.8-4.6-22.8,0.7
						C-310,460.8-325.3,456.2-319.5,462.8z"/>
					<g>
						<path class="st10" d="M-185.7,444.6c-0.4-0.1-0.8-0.2-1.2-0.3C-186.9,444.3-186.4,444.5-185.7,444.6z"/>
						<path class="st10" d="M388.9,495.9c0-0.9-0.2-1.5-0.2-1.5S388.8,495.1,388.9,495.9z"/>
						<path class="st10" d="M-223.1,465.3c-0.5-0.3-1-0.5-1.6-0.7C-224.7,464.7-224.1,465-223.1,465.3z"/>
						<path class="st10" d="M-319.9,462.3c0.1,0.2,0.2,0.3,0.4,0.5c10.3,11.8,17,19.5,25.9,13.3c8.9-6.1,14.3,13.9,25.8,8.9
							c11.5-5,11.1,14.1,26.5,11.6c9.2-1.5,14-11.6,17.8-18.5c-16,6.4-16.5-4-16.5-4c-14.2,4.1-20.9-8.2-20.9-8.2
							c-9.2,11-25.2,3.1-25.2,3.1c-6.3,4-11.8-2.2-11.8-2.2C-307.6,469.5-315,466.1-319.9,462.3z"/>
						<path class="st10" d="M407.4,484.1c0,0,0-0.5,0-1.4C407.4,483.5,407.4,484.1,407.4,484.1z"/>
						<path class="st10" d="M421.5,494.8c0,0,4.1-14.5-14-10.8c11.7-0.2,9.1,6.5,5.6,9.6c-3.5,3-6.5-1-6.5-1s7.2,10-5.3,10.8
							c-9.5,0.6-11.7-4.8-12.3-7.5c0.1,2.6-1,7.7-10.5,6.8c-12.7-1.1-11.9-9.2-11.9-9.2c-3.7,10.1-14,5.9-14,5.9
							c0.8,13.1-9.2,11.9-9.2,11.9c-1.4,4.8-8.3,6-10.1,0.1c-1.8-5.8,5.6-6.2,5.6-6.2c-7.4-7.3,3.7-19.3,3.7-19.3
							c-5,5.7-14.3,2-14.3,2c1.1-8.9-7.4-11.9-7.4-11.9s7.5,9.2,0.9,10.7c-6.6,1.5-10.7-2.6-10.7-2.6c-2.8,12.9-14,9.7-14,9.7
							s6.6,11.9-4.6,12.2c-11.2,0.3-6.3-11-6.3-11s-5.1,6.5-9.1,1c-4-5.4,3.5-11.7,3.5-11.7c-8.2,4.9-11.5,1.7-11.5,1.7
							c-7,15.6-19.4,9.9-19.4,9.9s2,10.5-11.8,9.8c-13.8-0.7-7.7-11.1-7.7-11.1c-16,3.6-16.2-6.5-16.2-6.5c-14.6,3.4-13-8.8-13-8.8
							c-5.6-5.3,0.5-8.1,0.5-8.1c-6.3,0.4-8-2.2-8-2.2c1.4-8.9-7.2-10-7.2-10c6.8,4-0.7,10-0.7,10s7.5,9.2-1.1,16.3
							c-8.6,7-12.9,2.1-12.9,2.1s4.1,8.2-6.6,8.5c-10.6,0.4-13.3-9.3-13.3-9.3s1.6,9.1-7.7,10.1c-9.3,1-12.9-6.3-12.9-6.3
							s-3.8,8.2-11.2,4.7s-6.5-12.4-6.5-12.4s-5,9.7-11,1.4c-6-8.3,4.6-12.2,4.6-12.2c-18.3-11.3,1.7-21.1,1.7-21.1
							c4.9,0.3,5.3,6.9,5.3,6.9c2.3-9.9,15.7-10.9,15.7-10.9c-22.8-1-19.6-15.5-19.6-15.5c-4.6,19.6-20.4,11.7-20.4,11.7
							s2.8,11.1-2.3,10.7c-5.1-0.3-3.2-8.4-3.2-8.4s-11.4,7.9-20.5,2.2c-9.1-5.8-2.2-15.9-2.2-15.9s-13,7.8-17.3,2.7
							c-4.3-5.2,0.4-9.8,0.4-9.8c-6.3,4.2-17.8,1.8-17.8,1.8c15.4,5.4,7.3,17.6,7.3,17.6c15.6,6.8,4.5,18.5,4.5,18.5
							s9.4-2.9,7.4,7.3c-2,10.2-10.7,5.8-10.7,5.8c-2.7,8.5-11.2,5.2-11.2,5.2c-2,18.1-14.8,9.9-14.8,9.9s2.7,8.6-6.5,7.4
							c-9.2-1.2-6.8-8.6-6.8-8.6c-14.3-2-11.2-11.1-11.2-11.1c-9.4-2.3-0.4-10.6-0.4-10.6c-21.7-1.7-17.3-18.6-17.3-18.6
							c9.1-1.6,6.5-8.3,6.5-8.3c12.4-3,13.2-10.5,13.2-10.5c-9.6,9.4-19,3.6-19,3.6c5.2,8-6.1,13.5-6.1,13.5s2.1,9.1-3.7,14.4
							c-5.8,5.3-14.8,1.7-14.8,1.7s2.9,10.3-4.6,12.2c-7.5,1.9-9.6-6.9-9.6-6.9c-10.7,6.1-14-10.5-14-10.5s-3.7,14.7-16.5,7.1
							c-12.8-7.7,1.2-18.7,1.2-18.7c-13.5-9.3,8-17.4,8-17.4c-22.6-8.3,3.6-17.4,3.6-17.4c-20.6-4.6-23.3,10.7-23.3,10.7
							c8.3,10.3-9.1,14.4-9.1,14.4c-1.3,15.2-12.4,9.8-12.4,9.8s15.2,20.3-3,19.9c-18.2-0.4-8.8-14.7-8.8-14.7
							c-12.3,0.5-12.6-11.4-12.6-11.4c-8.4,7.5-23.3,5-27.6,4.1c8.8,2.6-0.3,14.7-0.3,14.7c13.9,3.6,5.5,16,5.5,16s9.6,3.5,0.5,8.4
							c-9,4.9-9.4-2.3-9.4-2.3c-16.8,2.4-13.8-8.7-13.8-8.7c-10.1,1.1-6-7.4-6-7.4c-5.3,2.4-11.1,0.9-13.9-0.1
							c3.1,1.6,3.7,4.7,3.6,7.2c1.1-0.9,2.2-1,3.5-0.1c0,0,1.9,25.6,28.9,28.3c27.1,2.7,51.6-3.3,64.5-22.1c0,0,3.6,13.6,15,9.5
							c11.4-4.2,4.6,18.8,29.5,19.9c24.9,1.1,42.8-11.7,42.8-11.7s-1.3,19.8,23,23.6c24.3,3.9,30-14.1,44.7-13.1s20.2,12.5,35.3,6.8
							C82.8,508,89,501.2,89,501.2s-3.1,12.3,4.9,13.3c7.5,0.9,11.4-4.2,11.9-4.8c-0.6,0.8-6.3,9.5,4.3,16.2
							c11.2,7,53.6,7.2,49.4-9.7c0,0,4.8,7.9,15.3,5.5c10.4-2.4,4.3-10.4,4.3-10.4s9.6,10.9,16.2,4.6c0,0,1.4,12.2,11.3,11
							c0,0-1.1,16,28.9,14.9c30-1.1,32.8-23.3,32.8-23.3s4.8,7.9,12.5-0.5c0,0,6.9,10.7,18.5,10.6c11.6-0.1,12.6-14.4,12.6-14.4
							s3.4,10.1,13.3,8c0,0-1.8,7.5,11,8.8c12.9,1.3,23.6-5.6,15.9-17.3c0,0,9.6,10,17.9,6.6c8.3-3.5,12.3-10.8,12.3-10.8
							s0.4,14.3,18.5,11.1s8.9-13.3,8.9-13.3s10.9,3.4,14-2.2c3.1-5.6,10.6,2,15-3.5C443.3,496.3,433.8,490.3,421.5,494.8z"/>
					</g>
					<path class="st10" d="M-135.4,398.1c0,0-13.3,4.7-13.9-5.9c0,0-1.6-6.4-9.8-5.9c0,0,6.4-7.2-2.7-9.4
						c-9.1-2.3-10.6,4.9-10.6,4.9s1.5-7-5.5-6.2c0,0,9.9-5.4,8.4-11.7c0,0,11.3,9.3,22.4,1.5c0,0-5.6,9.2,5.1,12.2
						c0,0-5.5,3.3-4.4,7c1.1,3.7,7.3-0.2,7.3-0.2S-147.1,396.7-135.4,398.1z"/>
					<path class="st10" d="M-34.4,398.3c0,0-10.8-6.7-16.8-1.1c0,0,3.9-9.3-3.1-12.8c0,0,17.9,4.2,21.1-4.5c3.2-8.7-6.3-9.3-6.3-9.3
						s12.1-3.2,10.8-12.8c0,0,2.2,11,12.2,10.1c0,0-11.4,1.9-6.3,10.8C-22.8,378.6-41.5,386.2-34.4,398.3z"/>
					<g>
						<path class="st10" d="M136.4,386.9c0,0-0.4-2.2-1.5-4.4C135.4,385.1,136.4,386.9,136.4,386.9z"/>
						<path class="st10" d="M250.3,434.2c29.8-10.5,43.5,11.9,43.5,11.9s2-30.3-43.3-21.2c0,0-3.1-13.2-16.8-8.7
							c-2.2,9.1-9.3,5.7-9.3,5.7c4.6-9.5-7.4-12.4-7.4-12.4c0.5-4.1-5.9-9.5-5.9-9.5s-0.5-26-42.1-18.5c0,0-18.4-12-32.5,5.4
							c18.7-8.7,37.9,3.2,37.9,3.2c9.1-2,14.9,5,14.9,5c12.6-0.8,15.7,7.3,15.7,7.3c7-0.5,7.6,9.4,7.6,9.4
							c10.1,2.3,5.1,12.9,5.1,12.9l2.2,6.6c-3.1,7.6-10.6,5.7-10.6,5.7s6.3,9.7-3.4,11c-9.7,1.3-11.8-6.4-11.8-6.4
							c-10.1,3.3-14.2-5.6-14.2-5.6c2.5,7.6-7.3,9.8-7.3,9.8c-10-8.9,4.8-17.3,4.8-17.3c-13.3,5.9-20.1-1.3-20.1-1.3
							c6.2,10.5-1.4,20.8-1.4,20.8c11.1-3.2,15.1,7,15.1,7c9.2-4,15.3,4,15.3,4c5.9-12.8,23.1-0.4,23.1-0.4
							c11.9,0.1,10.9,10,10.9,10c18.7-2.6,14.5,10.2,14.5,10.2c11.2-13.8,30.1-5.6,30.1-5.6l-18.2-13.8c-14.3,0.7-11.3-9-11.3-9
							c-16.2-4.4-4.2-15.8-4.2-15.8C240.6,425.6,250.3,434.2,250.3,434.2z"/>
					</g>
				</g>
				<g>
					<path class="st9" d="M154.9,488.1c-4.6-3.6,2-11.5,6.5-8.9c0,0-0.6-4.2,2.7-6.9c3.3-2.7,8-0.5,10.1-1.4
						c2.1-0.9,3.5-4.3,6.9-3.9c3.4,0.5,8.1,5.2,10,3.6c1.9-1.5,5.8-6,8.7-4.6c2.9,1.4,6.3,2.1,8.3,1.3c2-0.8,3.4-9.6,12-9
						c8.6,0.6,10.7,3.6,13.5,1.4c2.8-2.2,0.2-7.6,4-7.6c3.8,0,3.3-5.3,6-3.8c2.7,1.5,2.3-6.2,7.5-6.1c5.2,0.1,7.8,2.8,7.8,2.8
						s-9.4-21,11.6-24.8c21-3.8,20,14.1,21.6,15.2c0,0,5.2-7.6,11-2.6c5.9,5.1,1.8,11.4,1.8,11.4s3.6-5.5,9.6-3.9
						c6,1.6,2,6.2,4.2,6.9c2.2,0.7,5.5-5.9,9.2-4.1c3.6,1.8,6.5,3.4,9.5,0c3.1-3.4,5.2-8.5,10-6c4.8,2.5,7.5,3.8,12.6,1.8
						c5.1-2,6.3-5.1,10-3.1c3.6,2,6.1,0.1,6.1,0.1s4.2-20.3,21-17.7c16.8,2.6,19.3,13,24.9,10c5.6-3.1,4-9.9,13.9-7.9
						s-8.2-24.7,17.6-24.5c0,0-11.8-22.8,10.3-29c22.1-6.2,30.9,8.2,30.9,8.2s10.1-8.8,15.9-1.5c0,0,2.8-12.7,14.8-16.1
						c12-3.4,19.5,3.2,19.5,3.2s-2.6-10.5,12.2-10.5c14.8,0,15,9.2,15,9.2s20-9.9,21.9,4.7c1.9,14.6,12.5,3.9,17.8,8.8
						c5.4,4.9,2.4,15.2,2.4,15.2s3.6-5.2,10.7-2.4c7.1,2.8,6.9,10.5,6.9,10.5s12.9-6.4,20.6,0.9c7.7,7.3,4.7,16.1,4.7,16.1
						s0.2-1.9,8.6-1.3c8.4,0.6,3.4,8.6,3.4,8.6s3-8.4,17.6-5.8c14.6,2.6,11.6,13.3,21.5,14.4c9.9,1.1,15.9-8.6,27.3-5.6
						c11.4,3,11.6,9.9,11.6,9.9s9.4-6.2,13.1,3.9c0,0,7.9-8.2,17,0.6c9,8.8,2.4,16.5,2.4,16.5s9.9-4.5,12.7,3.9
						c2.8,8.4-4.5,13.1-4.5,13.1s10.1-5.6,11.6,0.9c1.5,6.4,11.8,3.9,10.7,7.5c-1.1,3.7,9.7,4.7,8.2,10.1c-1.5,5.4-20.4,0.4-21,4.9
						c-0.6,4.5-12.7,4.5-12.7,4.5s-2.1,7.3-11.8,6c-9.7-1.3-10.3-8.4-10.3-8.4s-3.9,13.2-25.1,8.5c-21.3-4.7-14.4-20.3-14.4-20.3
						s-6.7,13.1-18.9,8.6c-12.2-4.5-14-10.7-14-10.7s-3.2,21.7-35.2,21.5c-32-0.2-40.8-8.8-40.8-8.8s-4.1,12.2-22.3,10.8
						c-18.3-1.4-25.1-9.5-25.1-9.5s-12.5,14.6-27.3,11.8c-14.8-2.8-17.9-11.8-17.9-11.8s-11.5,12.5-22.2,0.4c0,0-1.9,7.5-16.5,3.2
						c-14.6-4.3-5.8-0.9-18.7,0.2c-12.9,1.1-21.3-5.4-21.3-5.4s-7.7,12.5-25.3,7.9c-17.6-4.5-9.9-18-9.9-18s-9.2,7.1-15.2-2.6
						c0,0-2.1,14.2-18.7,12.5c-16.5-1.7-18.3-9.4-18.3-9.4s-2.6,16.1-19.8,9c0,0,2.4,9.4-12,8.4c0,0-8.6,8.2-18.9,2.1
						c-10.3-6-5.2-14.2-5.2-14.2s-5.2,6.9-9.7-0.2c0,0,0,13.5-13.1,10.3c-13.1-3.2-14.6-10.5-20.2-6.4c-5.6,4.1-16.7,1.7-16.7,1.7
						s0.6,7.3-12.2,8.2c-12.9,0.9-21-6.7-21-6.7s-4.1,6.9-12.2,1.5c-8.2-5.4-9-8.2-9-8.2s-3.2,7.1-14.4,3.9
						c-11.2-3.2-9.9-7.1-9.9-7.1S158.8,491.2,154.9,488.1z"/>
					<g>
						<path class="st10" d="M651.3,435c0.1-0.2,0.3-0.5,0.4-0.7C651.7,434.2,651.5,434.5,651.3,435z"/>
						<path class="st10" d="M286.5,480.2C286.5,480.2,286.5,480.2,286.5,480.2C286.5,480.2,286.5,480.2,286.5,480.2z"/>
						<path class="st10" d="M423.5,468.9c0-0.1,0-0.2,0-0.3C423.6,468.7,423.5,468.8,423.5,468.9z"/>
						<path class="st10" d="M711.6,438.9c1.7-0.4,3.3-1,4.8-2.1C716.4,436.7,714.2,437.5,711.6,438.9z"/>
						<path class="st10" d="M818.3,489.8c1.5-5.4-9.2-6.4-8.2-10.1c1.1-3.6-9.2-1.1-10.7-7.5c-0.7-3-3.2-3.4-5.7-3
							c6.8,1.2,0.5,5.6,0.5,5.6s8.4,1.1,1.8,8.3c-6.6,7.2-11,1.5-11,1.5c-7.3,9.3-17.3,2.8-17.3,2.8c-11.8,4.8-13.6-5.5-13.6-5.5
							c-8.3-2.8-3.3-10.3-3.3-10.3c-7.5,0-6.3-3.8-6.3-3.8c8.6,1.1,11.8-7,11.8-7c-6.8,8.3-17.3,2.3-17.3,2.3c-2.5,6.3-8,3.8-8,3.8
							s8,9-4.8,7.8c-12.8-1.3-2.3-15.1-2.3-15.1s-5.8,4.5-10,2.3c-4.3-2.3-2-7-2-7s-4.3,1-8.3-5.5c-2.6-4.2,3.3-8.1,8-10.4
							c-7.4,1.6-15.5-2.4-15.5-2.4c-2.8,8.3-9.3,5.8-9.3,5.8c3.3,5.8-6,10.3-6,10.3s8.8,7.3,0,16.3c-8.8,9-15.8,4.3-15.8,4.3
							s4,6-8,11c-12,5-18.6-4.3-18.6-4.3c-0.5,8.8-15.3,9.8-18.8,7c-3.5-2.8-0.8-5.3,1.5-9.8c2.3-4.5-4-7-4-7
							c-0.5-5.8,8.3-6.5,8.3-6.5c4.5-18.1,24.6-10.3,24.6-10.3c-5.4-3.9-0.1-15.3,1.4-18.3c-6.2,11.4-24,8-24,8
							c-7.8,11.8-23.3,2.8-23.3,2.8c6.3,8.5-7,15.6-7,15.6c3.5,26.9-23.6,20.8-23.6,20.8c-3,14.8-22.1,12.3-22.1,12.3
							c-12.3,5.8-16.8-3.8-16.8-3.8c5.5-2.5,1.5-8.8,1.5-8.8c8.8-3.3,8.5-14.3,8.5-14.3c-4.5,10.3-19.1,8.5-19.1,8.5
							c-0.5,16.1-12.5,8.5-12.5,8.5c-10.5,7.5-11.5-1-11.5-1c-14.8-0.3-12-10.3-12-10.3c-11,0.8-12.3-7.8-12.3-7.8
							c-2,18.1-18.3,7-18.3,7s9.3,13.8-14.1,11c-21.3-2.5-21.3-13-21.1-14.7c-0.8,6.5-8.8,2.4-8.8,2.4c-4.5-10,14.6-10,14.6-10
							c-17.1,0.5-22.8-20.1-22.8-20.1c0.3,15.1-8.5,13.8-8.5,13.8c4.3,13.8-7.8,11.8-7.8,11.8c-7.5,11.5-18.1,4-18.1,4
							s-7.8,3.8-11.8-3c-4-6.8,4.5-10.5,4.5-10.5c-9,4.3-19.4-4.5-19.4-4.5c4.7,7.3-2.7,9.8-2.7,9.8s6,9,0,10.5c-6,1.5-7.5-2-7.5-2
							s-6,3.8-13.1-1.3c-7-5,0-8.8,0-8.8c-13.3,6.5-22.1,0-22.1,0s7,5,3.8,12c-3.3,7-8.5,1.8-8.5,1.8s7,7.5,0,11
							c-6.8,3.4-8.6-5.1-8.8-5.7c0.1,0.7,1.7,10-12.1,10.2c-14.3,0.3-13.8-10.8-13.8-10.8l8.3-6c-9.8,6.5-21.8-2.5-21.8-2.5
							c-0.3,9.8-9.3,8-9.3,8c-1,8.5-9.8,6.8-9.8,6.8s6,11.3-3.8,10c-9.8-1.3-8-7.3-8-7.3s-9,3.8-15.3,1.5c-6.3-2.3-6-5.8-6-5.8
							s-2.8,3.5-7.8,3.5c-5,0-6.3-2.5-6.3-2.5s1,4.5-8,4.8c-9,0.3-7.5-7.3-7.5-7.3s-6.5,5-8.5,2.3c-0.9-1.2-1-3.2-0.8-5.1
							c-2.5,2-3.9,5.8-1,8c3.9,3,6.2,0,6.2,0s-1.3,3.9,9.9,7.1c11.2,3.2,14.4-3.9,14.4-3.9s0.9,2.8,9,8.2c8.2,5.4,12.2-1.5,12.2-1.5
							s8.2,7.5,21,6.7c12.9-0.9,12.2-8.2,12.2-8.2s11.2,2.4,16.7-1.7c5.6-4.1,7.1,3.2,20.2,6.4c13.1,3.2,13.1-10.3,13.1-10.3
							c4.5,7.1,9.7,0.2,9.7,0.2s-5.2,8.2,5.2,14.2c10.3,6,18.9-2.1,18.9-2.1c14.4,1.1,12-8.4,12-8.4c17.2,7.1,19.8-9,19.8-9
							s1.7,7.7,18.3,9.4c16.5,1.7,18.7-12.5,18.7-12.5c6,9.7,15.2,2.6,15.2,2.6s-7.7,13.5,9.9,18c17.6,4.5,25.3-7.9,25.3-7.9
							s8.4,6.4,21.3,5.4c12.9-1.1,4.1-4.5,18.7-0.2c14.6,4.3,16.5-3.2,16.5-3.2c10.7,12,22.2-0.4,22.2-0.4s3.1,9,17.9,11.8
							c14.8,2.8,27.3-11.8,27.3-11.8s6.9,8.2,25.1,9.5c18.3,1.4,22.3-10.8,22.3-10.8s8.8,8.6,40.8,8.8c32,0.2,35.2-21.5,35.2-21.5
							s1.7,6.2,14,10.7c12.2,4.5,18.9-8.6,18.9-8.6s-6.9,15.7,14.4,20.3c21.3,4.7,25.1-8.5,25.1-8.5s0.6,7.1,10.3,8.4
							c9.7,1.3,11.8-6,11.8-6s12,0,12.7-4.5C797.9,490.3,816.8,495.2,818.3,489.8z"/>
					</g>
					<path class="st10" d="M508.3,468.9c0,0-3.4-21.1-27.5-19c0,0-3-6.7-9.4-5.4c0,0,10.1-7,0-11.7c0,0,1-12.4-15.4-7.7
						c0,0,5-5.7,18.1-3.7c0,0,9.7-9.4,1-14.8c0,0,6.7-10.1-1.7-13.8h12.5c0,0-0.5,10.1,7.9,8.4c0,0-2.7,11.1,9.1,11.4
						c0,0-1.7,5,5.4,6.4c0,0-13.1,3.3-11.1,11.9c0,0,1.7,4.2,6.7,0c0,0-5,3.3,1,8c0,0,0.3,9.4,11.4,1.6c0,0-4.7,3-2.7,11.4
						C513.6,451.9,508.3,458.8,508.3,468.9z"/>
					<g>
						<path class="st10" d="M555.4,457.5c0.3,1.1,0.5,1.7,0.5,1.7C555.7,458.7,555.6,458.1,555.4,457.5z"/>
						<path class="st10" d="M539.8,443.5c0,0,1,0.1,2.4,0.1C540.8,443.4,539.8,443.5,539.8,443.5z"/>
						<path class="st10" d="M615.3,418.7c0,0-15.8-9-8.4-19.8c0,0-3.3-8.4,7.4-10.8c0,0,3-10.3-2.4-15.2c-1.5-1.4-3.4-1.5-5.4-1.4
							c0,0,7.7,1.9,4,9c0,0-8.7,0-9.4,5c0,0-8.1-4-13.1,1c0,0,5,8.7-8.7,10.4c0,0,10.7,0,9.7,9.4c-1,9.4-11.7,4.4-11.7,4.4
							s0,7.7-7.7,5.7c-7.7-2-13.1-8.1-13.1-8.1s-2,5-7.4,4.2c0,0,5,8.2-5,10.6c0,0,6,4,0,9.1c0,0,8.4-1.4,7,5.7
							c-0.9,4.8-5.9,5.7-9,5.8c3.4,0.5,9.5,3.1,13.1,13.9c-1.3-4.7-3.3-17.3,10.6-20.8c0,0,2-16,22.5-18.1
							C588.5,418.7,594.2,408.3,615.3,418.7z"/>
					</g>
					<path class="st10" d="M547.9,407.9c0,0-8.4,1-4-9.7c0,0-9.2-9.4-1.3-16.4c0,0-13.2,1.7-11.8-7.7c0,0,1,9.1-6.4,10.7
						c0,0,7.4,2.3,0,8.1c0,0,10.1-3,7,4l4.7-5.9c0,0,0.7,4.4,3.7,7.5C539.8,398.5,535.8,411.6,547.9,407.9z"/>
				</g>
			</g>
			<g class="st8">
				<g>
					<circle class="st11" cx="340" cy="162.3" r="61"/>
					<circle class="st12" cx="340" cy="162.3" r="56.6"/>
					<circle class="st13" cx="340" cy="162.3" r="52.2"/>
					<circle class="st14" cx="340" cy="162.3" r="47.8"/>
					<circle class="st15" cx="340" cy="162.3" r="43.4"/>
					<circle class="st16" cx="340" cy="162.3" r="39"/>
					<circle class="st6" cx="340" cy="162.3" r="34.6"/>
					<circle class="st17" cx="340" cy="162.3" r="29.9"/>
					<circle class="st18" cx="340" cy="162.3" r="25.3"/>
					<circle class="st19" cx="340" cy="162.3" r="20.7"/>
					<circle class="st20" cx="340" cy="162.3" r="16"/>
					<circle class="st21" cx="340" cy="162.3" r="11.4"/>
					<circle class="st9" cx="340" cy="162.3" r="6.7"/>
				</g>
				<path class="st22" d="M351.6,148.9L405,91.4C405,91.4,375.1,126.9,351.6,148.9z"/>
				<path class="st22" d="M253.9,173l65.5-8C319.3,165,280.8,171.6,253.9,173z"/>
				<path class="st22" d="M322.6,245.7l14.1-64.4C336.7,181.3,330.2,219.8,322.6,245.7z"/>
			</g>
		</g>
	</g>
</g>
<g id="DESIGNED_BY_FREEPIK">
</g>
</svg>
